STARTFONT 2.1
FONT -FontForge-Abyssinica SIL-Book-R-Normal--6-60-75-75-P-37-ISO10646-1
SIZE 6 75 75
FONTBOUNDINGBOX 14 8 -5 -2
COMMENT "Generated by fontforge, http://fontforge.sourceforge.net"
COMMENT "Copyright (c) 2000-2013 by SIL International. All rights reserved."
STARTPROPERTIES 40
FOUNDRY "FontForge"
FAMILY_NAME "Abyssinica SIL"
WEIGHT_NAME "Book"
SLANT "R"
SETWIDTH_NAME "Normal"
ADD_STYLE_NAME ""
PIXEL_SIZE 6
POINT_SIZE 60
RESOLUTION_X 75
RESOLUTION_Y 75
SPACING "P"
AVERAGE_WIDTH 37
CHARSET_REGISTRY "ISO10646"
CHARSET_ENCODING "1"
FONTNAME_REGISTRY ""
CHARSET_COLLECTIONS "ISO10646-1"
FONT_NAME "AbyssinicaSIL"
FACE_NAME "Abyssinica SIL"
COPYRIGHT "Copyright (c) 2000-2013 by SIL International. All rights reserved."
FONT_VERSION "1.500"
FONT_ASCENT 5
FONT_DESCENT 1
UNDERLINE_POSITION -1
UNDERLINE_THICKNESS 1
X_HEIGHT 2
CAP_HEIGHT 3
RAW_ASCENT 844
RAW_DESCENT 155
NORM_SPACE 3
RELATIVE_WEIGHT 40
RELATIVE_SETWIDTH 50
SUPERSCRIPT_X 0
SUPERSCRIPT_Y 2
SUPERSCRIPT_SIZE 3
SUBSCRIPT_X 0
SUBSCRIPT_Y 0
SUBSCRIPT_SIZE 3
FIGURE_WIDTH 3
AVG_LOWERCASE_WIDTH 29
AVG_UPPERCASE_WIDTH 38
ENDPROPERTIES
CHARS 1027
STARTCHAR tab
ENCODING 9
SWIDTH 312 0
DWIDTH 2 0
BBX 1 1 0 0
BITMAP
00
ENDCHAR
STARTCHAR space
ENCODING 32
SWIDTH 450 0
DWIDTH 3 0
BBX 1 1 0 0
BITMAP
00
ENDCHAR
STARTCHAR exclam
ENCODING 33
SWIDTH 540 0
DWIDTH 3 0
BBX 1 4 1 0
BITMAP
80
80
80
80
ENDCHAR
STARTCHAR quotedbl
ENCODING 34
SWIDTH 454 0
DWIDTH 3 0
BBX 1 2 1 2
BITMAP
80
80
ENDCHAR
STARTCHAR numbersign
ENCODING 35
SWIDTH 743 0
DWIDTH 4 0
BBX 4 4 0 0
BITMAP
70
70
F0
C0
ENDCHAR
STARTCHAR dollar
ENCODING 36
SWIDTH 540 0
DWIDTH 3 0
BBX 3 4 0 0
BITMAP
60
C0
A0
E0
ENDCHAR
STARTCHAR percent
ENCODING 37
SWIDTH 789 0
DWIDTH 5 0
BBX 4 4 0 0
BITMAP
50
A0
70
70
ENDCHAR
STARTCHAR ampersand
ENCODING 38
SWIDTH 699 0
DWIDTH 4 0
BBX 4 4 0 0
BITMAP
E0
C0
F0
F0
ENDCHAR
STARTCHAR quotesingle
ENCODING 39
SWIDTH 187 0
DWIDTH 1 0
BBX 1 2 0 2
BITMAP
80
80
ENDCHAR
STARTCHAR parenleft
ENCODING 40
SWIDTH 332 0
DWIDTH 2 0
BBX 2 4 0 0
BITMAP
C0
80
80
C0
ENDCHAR
STARTCHAR parenright
ENCODING 41
SWIDTH 332 0
DWIDTH 2 0
BBX 2 4 0 0
BITMAP
80
40
40
80
ENDCHAR
STARTCHAR asterisk
ENCODING 42
SWIDTH 486 0
DWIDTH 3 0
BBX 3 2 0 2
BITMAP
C0
E0
ENDCHAR
STARTCHAR plus
ENCODING 43
SWIDTH 586 0
DWIDTH 4 0
BBX 3 3 0 0
BITMAP
40
E0
40
ENDCHAR
STARTCHAR comma
ENCODING 44
SWIDTH 339 0
DWIDTH 2 0
BBX 1 2 0 -1
BITMAP
80
80
ENDCHAR
STARTCHAR hyphenminus
ENCODING 45
SWIDTH 367 0
DWIDTH 2 0
BBX 2 1 0 1
BITMAP
C0
ENDCHAR
STARTCHAR period
ENCODING 46
SWIDTH 318 0
DWIDTH 2 0
BBX 1 1 0 0
BITMAP
80
ENDCHAR
STARTCHAR slash
ENCODING 47
SWIDTH 407 0
DWIDTH 2 0
BBX 2 4 0 0
BITMAP
40
40
80
80
ENDCHAR
STARTCHAR zero
ENCODING 48
SWIDTH 540 0
DWIDTH 3 0
BBX 3 4 0 0
BITMAP
40
A0
A0
E0
ENDCHAR
STARTCHAR one
ENCODING 49
SWIDTH 540 0
DWIDTH 3 0
BBX 1 4 1 0
BITMAP
80
80
80
80
ENDCHAR
STARTCHAR two
ENCODING 50
SWIDTH 540 0
DWIDTH 3 0
BBX 3 4 0 0
BITMAP
60
A0
40
E0
ENDCHAR
STARTCHAR three
ENCODING 51
SWIDTH 540 0
DWIDTH 3 0
BBX 3 4 0 0
BITMAP
40
A0
60
E0
ENDCHAR
STARTCHAR four
ENCODING 52
SWIDTH 540 0
DWIDTH 3 0
BBX 3 4 0 0
BITMAP
20
E0
A0
60
ENDCHAR
STARTCHAR five
ENCODING 53
SWIDTH 540 0
DWIDTH 3 0
BBX 3 4 0 0
BITMAP
E0
80
60
E0
ENDCHAR
STARTCHAR six
ENCODING 54
SWIDTH 540 0
DWIDTH 3 0
BBX 3 4 0 0
BITMAP
60
80
E0
E0
ENDCHAR
STARTCHAR seven
ENCODING 55
SWIDTH 540 0
DWIDTH 3 0
BBX 3 4 0 0
BITMAP
E0
20
40
40
ENDCHAR
STARTCHAR eight
ENCODING 56
SWIDTH 540 0
DWIDTH 3 0
BBX 3 4 0 0
BITMAP
40
A0
E0
E0
ENDCHAR
STARTCHAR nine
ENCODING 57
SWIDTH 540 0
DWIDTH 3 0
BBX 3 4 0 0
BITMAP
40
A0
60
E0
ENDCHAR
STARTCHAR colon
ENCODING 58
SWIDTH 279 0
DWIDTH 2 0
BBX 1 3 0 0
BITMAP
80
00
80
ENDCHAR
STARTCHAR semicolon
ENCODING 59
SWIDTH 279 0
DWIDTH 2 0
BBX 1 4 0 -1
BITMAP
80
00
80
80
ENDCHAR
STARTCHAR less
ENCODING 60
SWIDTH 833 0
DWIDTH 5 0
BBX 3 3 1 0
BITMAP
60
80
60
ENDCHAR
STARTCHAR equal
ENCODING 61
SWIDTH 592 0
DWIDTH 4 0
BBX 3 2 0 1
BITMAP
E0
E0
ENDCHAR
STARTCHAR greater
ENCODING 62
SWIDTH 833 0
DWIDTH 5 0
BBX 3 3 1 0
BITMAP
C0
20
C0
ENDCHAR
STARTCHAR question
ENCODING 63
SWIDTH 585 0
DWIDTH 4 0
BBX 1 4 1 0
BITMAP
80
80
80
80
ENDCHAR
STARTCHAR at
ENCODING 64
SWIDTH 936 0
DWIDTH 6 0
BBX 5 5 0 -1
BITMAP
78
B8
D8
B0
78
ENDCHAR
STARTCHAR A
ENCODING 65
SWIDTH 673 0
DWIDTH 4 0
BBX 4 4 0 0
BITMAP
40
60
60
90
ENDCHAR
STARTCHAR B
ENCODING 66
SWIDTH 604 0
DWIDTH 4 0
BBX 3 4 0 0
BITMAP
E0
A0
E0
E0
ENDCHAR
STARTCHAR C
ENCODING 67
SWIDTH 626 0
DWIDTH 4 0
BBX 4 4 0 0
BITMAP
70
80
80
70
ENDCHAR
STARTCHAR D
ENCODING 68
SWIDTH 695 0
DWIDTH 4 0
BBX 4 4 0 0
BITMAP
E0
90
90
E0
ENDCHAR
STARTCHAR E
ENCODING 69
SWIDTH 583 0
DWIDTH 4 0
BBX 3 4 0 0
BITMAP
E0
A0
E0
E0
ENDCHAR
STARTCHAR F
ENCODING 70
SWIDTH 541 0
DWIDTH 3 0
BBX 3 4 0 0
BITMAP
E0
A0
E0
C0
ENDCHAR
STARTCHAR G
ENCODING 71
SWIDTH 694 0
DWIDTH 4 0
BBX 4 4 0 0
BITMAP
F0
80
B0
70
ENDCHAR
STARTCHAR H
ENCODING 72
SWIDTH 743 0
DWIDTH 4 0
BBX 4 4 0 0
BITMAP
D0
90
F0
D0
ENDCHAR
STARTCHAR I
ENCODING 73
SWIDTH 330 0
DWIDTH 2 0
BBX 2 4 0 0
BITMAP
C0
80
80
C0
ENDCHAR
STARTCHAR J
ENCODING 74
SWIDTH 484 0
DWIDTH 3 0
BBX 3 4 0 0
BITMAP
60
40
40
C0
ENDCHAR
STARTCHAR K
ENCODING 75
SWIDTH 638 0
DWIDTH 4 0
BBX 4 4 0 0
BITMAP
F0
C0
A0
F0
ENDCHAR
STARTCHAR L
ENCODING 76
SWIDTH 530 0
DWIDTH 3 0
BBX 3 4 0 0
BITMAP
C0
80
80
E0
ENDCHAR
STARTCHAR M
ENCODING 77
SWIDTH 875 0
DWIDTH 5 0
BBX 5 4 0 0
BITMAP
C8
58
E8
A8
ENDCHAR
STARTCHAR N
ENCODING 78
SWIDTH 721 0
DWIDTH 4 0
BBX 4 4 0 0
BITMAP
D0
D0
B0
90
ENDCHAR
STARTCHAR O
ENCODING 79
SWIDTH 730 0
DWIDTH 4 0
BBX 4 4 0 0
BITMAP
F0
90
90
F0
ENDCHAR
STARTCHAR P
ENCODING 80
SWIDTH 579 0
DWIDTH 3 0
BBX 3 4 0 0
BITMAP
E0
A0
C0
C0
ENDCHAR
STARTCHAR Q
ENCODING 81
SWIDTH 738 0
DWIDTH 4 0
BBX 4 5 0 -1
BITMAP
F0
90
90
90
70
ENDCHAR
STARTCHAR R
ENCODING 82
SWIDTH 648 0
DWIDTH 4 0
BBX 4 4 0 0
BITMAP
E0
A0
E0
F0
ENDCHAR
STARTCHAR S
ENCODING 83
SWIDTH 520 0
DWIDTH 3 0
BBX 3 4 0 0
BITMAP
E0
80
60
E0
ENDCHAR
STARTCHAR T
ENCODING 84
SWIDTH 599 0
DWIDTH 4 0
BBX 4 4 0 0
BITMAP
F0
40
40
60
ENDCHAR
STARTCHAR U
ENCODING 85
SWIDTH 711 0
DWIDTH 4 0
BBX 4 4 0 0
BITMAP
D0
90
90
60
ENDCHAR
STARTCHAR V
ENCODING 86
SWIDTH 666 0
DWIDTH 4 0
BBX 4 4 0 0
BITMAP
D0
A0
60
40
ENDCHAR
STARTCHAR W
ENCODING 87
SWIDTH 931 0
DWIDTH 6 0
BBX 6 4 0 0
BITMAP
AC
B8
58
50
ENDCHAR
STARTCHAR X
ENCODING 88
SWIDTH 633 0
DWIDTH 4 0
BBX 4 4 0 0
BITMAP
F0
40
60
B0
ENDCHAR
STARTCHAR Y
ENCODING 89
SWIDTH 625 0
DWIDTH 4 0
BBX 4 4 0 0
BITMAP
B0
60
40
60
ENDCHAR
STARTCHAR Z
ENCODING 90
SWIDTH 575 0
DWIDTH 3 0
BBX 3 4 0 0
BITMAP
E0
40
40
E0
ENDCHAR
STARTCHAR bracketleft
ENCODING 91
SWIDTH 332 0
DWIDTH 2 0
BBX 1 4 1 0
BITMAP
80
80
80
80
ENDCHAR
STARTCHAR backslash
ENCODING 92
SWIDTH 405 0
DWIDTH 2 0
BBX 2 4 0 0
BITMAP
80
80
40
40
ENDCHAR
STARTCHAR bracketright
ENCODING 93
SWIDTH 332 0
DWIDTH 2 0
BBX 1 4 0 0
BITMAP
80
80
80
80
ENDCHAR
STARTCHAR asciicircum
ENCODING 94
SWIDTH 958 0
DWIDTH 6 0
BBX 3 4 1 0
BITMAP
40
40
A0
A0
ENDCHAR
STARTCHAR underscore
ENCODING 95
SWIDTH 600 0
DWIDTH 4 0
BBX 4 1 0 -2
BITMAP
F0
ENDCHAR
STARTCHAR grave
ENCODING 96
SWIDTH 350 0
DWIDTH 2 0
BBX 1 1 0 3
BITMAP
80
ENDCHAR
STARTCHAR a
ENCODING 97
SWIDTH 508 0
DWIDTH 3 0
BBX 3 3 0 0
BITMAP
C0
60
E0
ENDCHAR
STARTCHAR b
ENCODING 98
SWIDTH 555 0
DWIDTH 3 0
BBX 3 4 0 0
BITMAP
80
E0
A0
E0
ENDCHAR
STARTCHAR c
ENCODING 99
SWIDTH 465 0
DWIDTH 3 0
BBX 3 3 0 0
BITMAP
E0
80
E0
ENDCHAR
STARTCHAR d
ENCODING 100
SWIDTH 563 0
DWIDTH 3 0
BBX 3 4 0 0
BITMAP
20
E0
A0
E0
ENDCHAR
STARTCHAR e
ENCODING 101
SWIDTH 490 0
DWIDTH 3 0
BBX 3 3 0 0
BITMAP
E0
C0
E0
ENDCHAR
STARTCHAR f
ENCODING 102
SWIDTH 326 0
DWIDTH 2 0
BBX 2 4 0 0
BITMAP
C0
C0
80
C0
ENDCHAR
STARTCHAR g
ENCODING 103
SWIDTH 524 0
DWIDTH 3 0
BBX 3 4 0 -1
BITMAP
E0
C0
40
E0
ENDCHAR
STARTCHAR h
ENCODING 104
SWIDTH 574 0
DWIDTH 3 0
BBX 3 4 0 0
BITMAP
80
60
A0
A0
ENDCHAR
STARTCHAR i
ENCODING 105
SWIDTH 303 0
DWIDTH 2 0
BBX 2 3 0 0
BITMAP
80
80
C0
ENDCHAR
STARTCHAR j
ENCODING 106
SWIDTH 291 0
DWIDTH 2 0
BBX 1 4 0 -1
BITMAP
80
80
80
80
ENDCHAR
STARTCHAR k
ENCODING 107
SWIDTH 534 0
DWIDTH 3 0
BBX 3 4 0 0
BITMAP
80
E0
40
A0
ENDCHAR
STARTCHAR l
ENCODING 108
SWIDTH 296 0
DWIDTH 2 0
BBX 2 4 0 0
BITMAP
80
80
80
C0
ENDCHAR
STARTCHAR m
ENCODING 109
SWIDTH 850 0
DWIDTH 5 0
BBX 5 3 0 0
BITMAP
F0
A8
A8
ENDCHAR
STARTCHAR n
ENCODING 110
SWIDTH 566 0
DWIDTH 3 0
BBX 3 3 0 0
BITMAP
E0
A0
A0
ENDCHAR
STARTCHAR o
ENCODING 111
SWIDTH 543 0
DWIDTH 3 0
BBX 3 3 0 0
BITMAP
E0
A0
E0
ENDCHAR
STARTCHAR p
ENCODING 112
SWIDTH 559 0
DWIDTH 3 0
BBX 3 4 0 -1
BITMAP
E0
A0
A0
C0
ENDCHAR
STARTCHAR q
ENCODING 113
SWIDTH 548 0
DWIDTH 3 0
BBX 3 4 0 -1
BITMAP
E0
A0
A0
60
ENDCHAR
STARTCHAR r
ENCODING 114
SWIDTH 391 0
DWIDTH 2 0
BBX 2 3 0 0
BITMAP
C0
80
C0
ENDCHAR
STARTCHAR s
ENCODING 115
SWIDTH 397 0
DWIDTH 2 0
BBX 2 3 0 0
BITMAP
C0
40
C0
ENDCHAR
STARTCHAR t
ENCODING 116
SWIDTH 339 0
DWIDTH 2 0
BBX 2 4 0 0
BITMAP
80
C0
80
C0
ENDCHAR
STARTCHAR u
ENCODING 117
SWIDTH 568 0
DWIDTH 3 0
BBX 3 3 0 0
BITMAP
A0
A0
E0
ENDCHAR
STARTCHAR v
ENCODING 118
SWIDTH 528 0
DWIDTH 3 0
BBX 3 3 0 0
BITMAP
A0
C0
40
ENDCHAR
STARTCHAR w
ENCODING 119
SWIDTH 783 0
DWIDTH 5 0
BBX 5 3 0 0
BITMAP
B8
F0
50
ENDCHAR
STARTCHAR x
ENCODING 120
SWIDTH 509 0
DWIDTH 3 0
BBX 3 3 0 0
BITMAP
A0
40
A0
ENDCHAR
STARTCHAR y
ENCODING 121
SWIDTH 529 0
DWIDTH 3 0
BBX 3 4 0 -1
BITMAP
A0
C0
40
C0
ENDCHAR
STARTCHAR z
ENCODING 122
SWIDTH 461 0
DWIDTH 3 0
BBX 3 3 0 0
BITMAP
C0
40
E0
ENDCHAR
STARTCHAR braceleft
ENCODING 123
SWIDTH 487 0
DWIDTH 3 0
BBX 3 5 0 -1
BITMAP
60
40
80
40
20
ENDCHAR
STARTCHAR bar
ENCODING 124
SWIDTH 500 0
DWIDTH 3 0
BBX 1 6 1 -1
BITMAP
80
80
80
80
80
80
ENDCHAR
STARTCHAR braceright
ENCODING 125
SWIDTH 487 0
DWIDTH 3 0
BBX 3 5 0 -1
BITMAP
C0
40
60
40
80
ENDCHAR
STARTCHAR asciitilde
ENCODING 126
SWIDTH 833 0
DWIDTH 5 0
BBX 3 1 1 1
BITMAP
E0
ENDCHAR
STARTCHAR NoBreakSpace
ENCODING 160
SWIDTH 292 0
DWIDTH 2 0
BBX 1 1 0 0
BITMAP
00
ENDCHAR
STARTCHAR exclamdown
ENCODING 161
SWIDTH 540 0
DWIDTH 3 0
BBX 1 4 1 -1
BITMAP
80
80
80
80
ENDCHAR
STARTCHAR cent
ENCODING 162
SWIDTH 562 0
DWIDTH 3 0
BBX 3 5 0 -1
BITMAP
40
E0
C0
E0
40
ENDCHAR
STARTCHAR sterling
ENCODING 163
SWIDTH 562 0
DWIDTH 3 0
BBX 3 4 0 0
BITMAP
60
80
E0
E0
ENDCHAR
STARTCHAR currency
ENCODING 164
SWIDTH 605 0
DWIDTH 4 0
BBX 3 3 0 1
BITMAP
E0
A0
E0
ENDCHAR
STARTCHAR yen
ENCODING 165
SWIDTH 596 0
DWIDTH 4 0
BBX 4 4 0 0
BITMAP
B0
E0
E0
60
ENDCHAR
STARTCHAR brokenbar
ENCODING 166
SWIDTH 500 0
DWIDTH 3 0
BBX 1 5 1 -1
BITMAP
80
80
00
80
80
ENDCHAR
STARTCHAR section
ENCODING 167
SWIDTH 500 0
DWIDTH 3 0
BBX 3 5 0 -1
BITMAP
C0
C0
A0
40
E0
ENDCHAR
STARTCHAR dieresis
ENCODING 168
SWIDTH 315 0
DWIDTH 2 0
BBX 2 1 0 3
BITMAP
C0
ENDCHAR
STARTCHAR copyright
ENCODING 169
SWIDTH 868 0
DWIDTH 5 0
BBX 5 4 0 0
BITMAP
F0
C8
D8
70
ENDCHAR
STARTCHAR ordfeminine
ENCODING 170
SWIDTH 340 0
DWIDTH 2 0
BBX 2 2 0 2
BITMAP
C0
C0
ENDCHAR
STARTCHAR guillemotleft
ENCODING 171
SWIDTH 600 0
DWIDTH 4 0
BBX 2 2 1 1
BITMAP
C0
C0
ENDCHAR
STARTCHAR logicalnot
ENCODING 172
SWIDTH 833 0
DWIDTH 5 0
BBX 3 2 1 1
BITMAP
E0
20
ENDCHAR
STARTCHAR uni00AD
ENCODING 173
SWIDTH 319 0
DWIDTH 2 0
BBX 2 1 0 1
BITMAP
C0
ENDCHAR
STARTCHAR registered
ENCODING 174
SWIDTH 836 0
DWIDTH 5 0
BBX 5 4 0 0
BITMAP
F0
E8
E8
F0
ENDCHAR
STARTCHAR macron
ENCODING 175
SWIDTH 334 0
DWIDTH 2 0
BBX 2 1 0 3
BITMAP
C0
ENDCHAR
STARTCHAR degree
ENCODING 176
SWIDTH 319 0
DWIDTH 2 0
BBX 2 1 0 3
BITMAP
C0
ENDCHAR
STARTCHAR plusminus
ENCODING 177
SWIDTH 833 0
DWIDTH 5 0
BBX 3 3 1 0
BITMAP
40
E0
E0
ENDCHAR
STARTCHAR twosuperior
ENCODING 178
SWIDTH 404 0
DWIDTH 2 0
BBX 2 2 0 2
BITMAP
C0
C0
ENDCHAR
STARTCHAR threesuperior
ENCODING 179
SWIDTH 404 0
DWIDTH 2 0
BBX 2 2 0 2
BITMAP
C0
C0
ENDCHAR
STARTCHAR acute
ENCODING 180
SWIDTH 351 0
DWIDTH 2 0
BBX 1 1 1 3
BITMAP
80
ENDCHAR
STARTCHAR mu
ENCODING 181
SWIDTH 546 0
DWIDTH 3 0
BBX 3 4 0 -1
BITMAP
A0
A0
A0
C0
ENDCHAR
STARTCHAR paragraph
ENCODING 182
SWIDTH 560 0
DWIDTH 3 0
BBX 3 4 0 0
BITMAP
E0
60
60
60
ENDCHAR
STARTCHAR periodcentered
ENCODING 183
SWIDTH 280 0
DWIDTH 2 0
BBX 1 1 0 1
BITMAP
80
ENDCHAR
STARTCHAR cedilla
ENCODING 184
SWIDTH 230 0
DWIDTH 1 0
BBX 1 1 0 -1
BITMAP
80
ENDCHAR
STARTCHAR onesuperior
ENCODING 185
SWIDTH 404 0
DWIDTH 2 0
BBX 1 2 1 2
BITMAP
80
80
ENDCHAR
STARTCHAR ordmasculine
ENCODING 186
SWIDTH 357 0
DWIDTH 2 0
BBX 2 2 0 2
BITMAP
C0
C0
ENDCHAR
STARTCHAR guillemotright
ENCODING 187
SWIDTH 600 0
DWIDTH 4 0
BBX 3 2 0 1
BITMAP
E0
E0
ENDCHAR
STARTCHAR onequarter
ENCODING 188
SWIDTH 875 0
DWIDTH 5 0
BBX 5 4 0 0
BITMAP
90
A0
58
48
ENDCHAR
STARTCHAR onehalf
ENCODING 189
SWIDTH 875 0
DWIDTH 5 0
BBX 5 4 0 0
BITMAP
90
A0
58
58
ENDCHAR
STARTCHAR threequarters
ENCODING 190
SWIDTH 875 0
DWIDTH 5 0
BBX 5 4 0 0
BITMAP
D0
60
D8
48
ENDCHAR
STARTCHAR questiondown
ENCODING 191
SWIDTH 485 0
DWIDTH 3 0
BBX 3 5 0 -1
BITMAP
40
00
40
80
60
ENDCHAR
STARTCHAR Agrave
ENCODING 192
SWIDTH 673 0
DWIDTH 4 0
BBX 4 6 0 0
BITMAP
80
40
40
60
60
90
ENDCHAR
STARTCHAR Aacute
ENCODING 193
SWIDTH 673 0
DWIDTH 4 0
BBX 4 6 0 0
BITMAP
20
40
40
60
60
90
ENDCHAR
STARTCHAR Acircumflex
ENCODING 194
SWIDTH 673 0
DWIDTH 4 0
BBX 4 5 0 0
BITMAP
E0
40
60
60
90
ENDCHAR
STARTCHAR Atilde
ENCODING 195
SWIDTH 673 0
DWIDTH 4 0
BBX 4 5 0 0
BITMAP
60
40
60
60
90
ENDCHAR
STARTCHAR Adieresis
ENCODING 196
SWIDTH 673 0
DWIDTH 4 0
BBX 4 5 0 0
BITMAP
60
40
60
60
90
ENDCHAR
STARTCHAR Aring
ENCODING 197
SWIDTH 673 0
DWIDTH 4 0
BBX 4 6 0 0
BITMAP
60
40
40
60
60
90
ENDCHAR
STARTCHAR AE
ENCODING 198
SWIDTH 933 0
DWIDTH 6 0
BBX 5 4 0 0
BITMAP
38
58
78
B8
ENDCHAR
STARTCHAR Ccedilla
ENCODING 199
SWIDTH 626 0
DWIDTH 4 0
BBX 4 5 0 -1
BITMAP
70
80
80
50
20
ENDCHAR
STARTCHAR Egrave
ENCODING 200
SWIDTH 583 0
DWIDTH 4 0
BBX 3 6 0 0
BITMAP
80
40
A0
A0
E0
E0
ENDCHAR
STARTCHAR Eacute
ENCODING 201
SWIDTH 583 0
DWIDTH 4 0
BBX 3 6 0 0
BITMAP
20
40
A0
A0
E0
E0
ENDCHAR
STARTCHAR Ecircumflex
ENCODING 202
SWIDTH 583 0
DWIDTH 4 0
BBX 3 5 0 0
BITMAP
E0
E0
A0
E0
E0
ENDCHAR
STARTCHAR Edieresis
ENCODING 203
SWIDTH 583 0
DWIDTH 4 0
BBX 3 5 0 0
BITMAP
60
E0
A0
E0
E0
ENDCHAR
STARTCHAR Igrave
ENCODING 204
SWIDTH 330 0
DWIDTH 2 0
BBX 2 6 0 0
BITMAP
80
80
C0
80
80
C0
ENDCHAR
STARTCHAR Iacute
ENCODING 205
SWIDTH 330 0
DWIDTH 2 0
BBX 2 6 0 0
BITMAP
40
80
C0
80
80
C0
ENDCHAR
STARTCHAR Icircumflex
ENCODING 206
SWIDTH 330 0
DWIDTH 2 0
BBX 2 5 0 0
BITMAP
C0
80
80
80
C0
ENDCHAR
STARTCHAR Idieresis
ENCODING 207
SWIDTH 330 0
DWIDTH 2 0
BBX 2 5 0 0
BITMAP
C0
C0
80
80
C0
ENDCHAR
STARTCHAR Eth
ENCODING 208
SWIDTH 695 0
DWIDTH 4 0
BBX 4 4 0 0
BITMAP
E0
90
D0
E0
ENDCHAR
STARTCHAR Ntilde
ENCODING 209
SWIDTH 721 0
DWIDTH 4 0
BBX 4 5 0 0
BITMAP
60
D0
D0
B0
90
ENDCHAR
STARTCHAR Ograve
ENCODING 210
SWIDTH 730 0
DWIDTH 4 0
BBX 4 6 0 0
BITMAP
40
40
B0
90
90
F0
ENDCHAR
STARTCHAR Oacute
ENCODING 211
SWIDTH 730 0
DWIDTH 4 0
BBX 4 6 0 0
BITMAP
20
40
B0
90
90
F0
ENDCHAR
STARTCHAR Ocircumflex
ENCODING 212
SWIDTH 730 0
DWIDTH 4 0
BBX 4 5 0 0
BITMAP
60
90
90
90
F0
ENDCHAR
STARTCHAR Otilde
ENCODING 213
SWIDTH 730 0
DWIDTH 4 0
BBX 4 5 0 0
BITMAP
60
F0
90
90
F0
ENDCHAR
STARTCHAR Odieresis
ENCODING 214
SWIDTH 731 0
DWIDTH 4 0
BBX 4 5 0 0
BITMAP
60
F0
90
90
F0
ENDCHAR
STARTCHAR multiply
ENCODING 215
SWIDTH 586 0
DWIDTH 4 0
BBX 3 3 0 0
BITMAP
E0
60
A0
ENDCHAR
STARTCHAR Oslash
ENCODING 216
SWIDTH 730 0
DWIDTH 4 0
BBX 4 4 0 0
BITMAP
F0
B0
D0
F0
ENDCHAR
STARTCHAR Ugrave
ENCODING 217
SWIDTH 711 0
DWIDTH 4 0
BBX 4 6 0 0
BITMAP
40
20
D0
90
90
60
ENDCHAR
STARTCHAR Uacute
ENCODING 218
SWIDTH 711 0
DWIDTH 4 0
BBX 4 6 0 0
BITMAP
20
40
90
90
90
60
ENDCHAR
STARTCHAR Ucircumflex
ENCODING 219
SWIDTH 711 0
DWIDTH 4 0
BBX 4 5 0 0
BITMAP
60
90
90
90
60
ENDCHAR
STARTCHAR Udieresis
ENCODING 220
SWIDTH 711 0
DWIDTH 4 0
BBX 4 5 0 0
BITMAP
40
D0
90
90
60
ENDCHAR
STARTCHAR Yacute
ENCODING 221
SWIDTH 625 0
DWIDTH 4 0
BBX 4 6 0 0
BITMAP
20
40
B0
60
40
60
ENDCHAR
STARTCHAR Thorn
ENCODING 222
SWIDTH 578 0
DWIDTH 3 0
BBX 3 4 0 0
BITMAP
C0
E0
A0
C0
ENDCHAR
STARTCHAR germandbls
ENCODING 223
SWIDTH 627 0
DWIDTH 4 0
BBX 4 4 0 0
BITMAP
E0
C0
A0
F0
ENDCHAR
STARTCHAR agrave
ENCODING 224
SWIDTH 508 0
DWIDTH 3 0
BBX 3 4 0 0
BITMAP
C0
C0
60
E0
ENDCHAR
STARTCHAR aacute
ENCODING 225
SWIDTH 508 0
DWIDTH 3 0
BBX 3 4 0 0
BITMAP
60
C0
60
E0
ENDCHAR
STARTCHAR acircumflex
ENCODING 226
SWIDTH 508 0
DWIDTH 3 0
BBX 3 4 0 0
BITMAP
C0
C0
60
E0
ENDCHAR
STARTCHAR atilde
ENCODING 227
SWIDTH 508 0
DWIDTH 3 0
BBX 3 4 0 0
BITMAP
E0
C0
60
E0
ENDCHAR
STARTCHAR adieresis
ENCODING 228
SWIDTH 508 0
DWIDTH 3 0
BBX 3 3 0 0
BITMAP
C0
60
E0
ENDCHAR
STARTCHAR aring
ENCODING 229
SWIDTH 508 0
DWIDTH 3 0
BBX 3 5 0 0
BITMAP
40
40
C0
60
E0
ENDCHAR
STARTCHAR ae
ENCODING 230
SWIDTH 721 0
DWIDTH 4 0
BBX 4 3 0 0
BITMAP
F0
40
F0
ENDCHAR
STARTCHAR ccedilla
ENCODING 231
SWIDTH 465 0
DWIDTH 3 0
BBX 3 4 0 -1
BITMAP
E0
80
A0
40
ENDCHAR
STARTCHAR egrave
ENCODING 232
SWIDTH 490 0
DWIDTH 3 0
BBX 3 4 0 0
BITMAP
40
A0
C0
E0
ENDCHAR
STARTCHAR eacute
ENCODING 233
SWIDTH 490 0
DWIDTH 3 0
BBX 3 4 0 0
BITMAP
60
A0
C0
E0
ENDCHAR
STARTCHAR ecircumflex
ENCODING 234
SWIDTH 490 0
DWIDTH 3 0
BBX 3 4 0 0
BITMAP
C0
A0
C0
E0
ENDCHAR
STARTCHAR edieresis
ENCODING 235
SWIDTH 490 0
DWIDTH 3 0
BBX 3 3 0 0
BITMAP
E0
C0
E0
ENDCHAR
STARTCHAR igrave
ENCODING 236
SWIDTH 303 0
DWIDTH 2 0
BBX 2 4 0 0
BITMAP
80
80
80
C0
ENDCHAR
STARTCHAR iacute
ENCODING 237
SWIDTH 303 0
DWIDTH 2 0
BBX 2 4 0 0
BITMAP
C0
80
80
C0
ENDCHAR
STARTCHAR icircumflex
ENCODING 238
SWIDTH 303 0
DWIDTH 2 0
BBX 2 4 0 0
BITMAP
C0
80
80
C0
ENDCHAR
STARTCHAR idieresis
ENCODING 239
SWIDTH 303 0
DWIDTH 2 0
BBX 2 4 0 0
BITMAP
C0
80
80
C0
ENDCHAR
STARTCHAR eth
ENCODING 240
SWIDTH 539 0
DWIDTH 3 0
BBX 3 4 0 0
BITMAP
60
A0
A0
E0
ENDCHAR
STARTCHAR ntilde
ENCODING 241
SWIDTH 577 0
DWIDTH 3 0
BBX 3 4 0 0
BITMAP
60
E0
A0
A0
ENDCHAR
STARTCHAR ograve
ENCODING 242
SWIDTH 543 0
DWIDTH 3 0
BBX 3 4 0 0
BITMAP
40
A0
A0
E0
ENDCHAR
STARTCHAR oacute
ENCODING 243
SWIDTH 543 0
DWIDTH 3 0
BBX 3 4 0 0
BITMAP
60
A0
A0
E0
ENDCHAR
STARTCHAR ocircumflex
ENCODING 244
SWIDTH 543 0
DWIDTH 3 0
BBX 3 4 0 0
BITMAP
C0
A0
A0
E0
ENDCHAR
STARTCHAR otilde
ENCODING 245
SWIDTH 543 0
DWIDTH 3 0
BBX 3 4 0 0
BITMAP
60
E0
A0
E0
ENDCHAR
STARTCHAR odieresis
ENCODING 246
SWIDTH 543 0
DWIDTH 3 0
BBX 3 4 0 0
BITMAP
20
E0
A0
E0
ENDCHAR
STARTCHAR divide
ENCODING 247
SWIDTH 833 0
DWIDTH 5 0
BBX 3 3 1 0
BITMAP
40
A0
40
ENDCHAR
STARTCHAR oslash
ENCODING 248
SWIDTH 543 0
DWIDTH 3 0
BBX 3 3 0 0
BITMAP
E0
E0
E0
ENDCHAR
STARTCHAR ugrave
ENCODING 249
SWIDTH 568 0
DWIDTH 3 0
BBX 3 4 0 0
BITMAP
40
A0
A0
E0
ENDCHAR
STARTCHAR uacute
ENCODING 250
SWIDTH 568 0
DWIDTH 3 0
BBX 3 4 0 0
BITMAP
60
A0
A0
E0
ENDCHAR
STARTCHAR ucircumflex
ENCODING 251
SWIDTH 568 0
DWIDTH 3 0
BBX 3 4 0 0
BITMAP
E0
A0
A0
E0
ENDCHAR
STARTCHAR udieresis
ENCODING 252
SWIDTH 568 0
DWIDTH 3 0
BBX 3 4 0 0
BITMAP
20
A0
A0
E0
ENDCHAR
STARTCHAR yacute
ENCODING 253
SWIDTH 529 0
DWIDTH 3 0
BBX 3 5 0 -1
BITMAP
60
A0
C0
40
C0
ENDCHAR
STARTCHAR thorn
ENCODING 254
SWIDTH 559 0
DWIDTH 3 0
BBX 3 5 0 -1
BITMAP
80
E0
A0
A0
C0
ENDCHAR
STARTCHAR ydieresis
ENCODING 255
SWIDTH 529 0
DWIDTH 3 0
BBX 3 5 0 -1
BITMAP
20
A0
C0
40
C0
ENDCHAR
STARTCHAR dotlessi
ENCODING 305
SWIDTH 303 0
DWIDTH 2 0
BBX 2 3 0 0
BITMAP
80
80
C0
ENDCHAR
STARTCHAR OE
ENCODING 338
SWIDTH 999 0
DWIDTH 6 0
BBX 6 4 0 0
BITMAP
FC
98
98
FC
ENDCHAR
STARTCHAR oe
ENCODING 339
SWIDTH 819 0
DWIDTH 5 0
BBX 5 3 0 0
BITMAP
F8
B0
F8
ENDCHAR
STARTCHAR Scaron
ENCODING 352
SWIDTH 520 0
DWIDTH 3 0
BBX 3 5 0 0
BITMAP
60
A0
80
60
E0
ENDCHAR
STARTCHAR scaron
ENCODING 353
SWIDTH 397 0
DWIDTH 2 0
BBX 2 4 0 0
BITMAP
C0
C0
40
C0
ENDCHAR
STARTCHAR Ydieresis
ENCODING 376
SWIDTH 625 0
DWIDTH 4 0
BBX 4 5 0 0
BITMAP
60
B0
60
40
60
ENDCHAR
STARTCHAR Zcaron
ENCODING 381
SWIDTH 575 0
DWIDTH 3 0
BBX 3 6 0 0
BITMAP
A0
40
A0
40
40
E0
ENDCHAR
STARTCHAR zcaron
ENCODING 382
SWIDTH 461 0
DWIDTH 3 0
BBX 3 4 0 0
BITMAP
C0
C0
40
E0
ENDCHAR
STARTCHAR florin
ENCODING 402
SWIDTH 428 0
DWIDTH 3 0
BBX 3 5 0 -1
BITMAP
60
40
40
80
80
ENDCHAR
STARTCHAR circumflex
ENCODING 710
SWIDTH 327 0
DWIDTH 2 0
BBX 2 1 0 3
BITMAP
C0
ENDCHAR
STARTCHAR caron
ENCODING 711
SWIDTH 327 0
DWIDTH 2 0
BBX 2 1 0 3
BITMAP
C0
ENDCHAR
STARTCHAR uni02C9
ENCODING 713
SWIDTH 334 0
DWIDTH 2 0
BBX 2 1 0 3
BITMAP
C0
ENDCHAR
STARTCHAR breve
ENCODING 728
SWIDTH 297 0
DWIDTH 2 0
BBX 2 1 0 3
BITMAP
C0
ENDCHAR
STARTCHAR dotaccent
ENCODING 729
SWIDTH 111 0
DWIDTH 1 0
BBX 1 1 0 3
BITMAP
80
ENDCHAR
STARTCHAR ring
ENCODING 730
SWIDTH 237 0
DWIDTH 1 0
BBX 1 2 0 3
BITMAP
80
80
ENDCHAR
STARTCHAR ogonek
ENCODING 731
SWIDTH 186 0
DWIDTH 1 0
BBX 1 1 0 -1
BITMAP
80
ENDCHAR
STARTCHAR tilde
ENCODING 732
SWIDTH 347 0
DWIDTH 2 0
BBX 2 1 0 3
BITMAP
C0
ENDCHAR
STARTCHAR hungarumlaut
ENCODING 733
SWIDTH 426 0
DWIDTH 3 0
BBX 3 1 0 3
BITMAP
E0
ENDCHAR
STARTCHAR gravecomb
ENCODING 768
SWIDTH 0 0
DWIDTH 0 0
BBX 2 1 -4 5
BITMAP
C0
ENDCHAR
STARTCHAR acutecomb
ENCODING 769
SWIDTH 0 0
DWIDTH 0 0
BBX 1 1 -3 5
BITMAP
80
ENDCHAR
STARTCHAR uni0302
ENCODING 770
SWIDTH 0 0
DWIDTH 0 0
BBX 2 1 -4 5
BITMAP
C0
ENDCHAR
STARTCHAR tildecomb
ENCODING 771
SWIDTH 0 0
DWIDTH 0 0
BBX 2 1 -4 4
BITMAP
C0
ENDCHAR
STARTCHAR uni0304
ENCODING 772
SWIDTH 0 0
DWIDTH 0 0
BBX 2 1 -4 4
BITMAP
C0
ENDCHAR
STARTCHAR uni0307
ENCODING 775
SWIDTH 0 0
DWIDTH 0 0
BBX 1 1 -3 4
BITMAP
80
ENDCHAR
STARTCHAR uni0308
ENCODING 776
SWIDTH 0 0
DWIDTH 0 0
BBX 1 1 -3 4
BITMAP
00
ENDCHAR
STARTCHAR uni030B
ENCODING 779
SWIDTH 0 0
DWIDTH 0 0
BBX 3 1 -4 5
BITMAP
E0
ENDCHAR
STARTCHAR uni030C
ENCODING 780
SWIDTH 0 0
DWIDTH 0 0
BBX 2 1 -4 5
BITMAP
C0
ENDCHAR
STARTCHAR uni030F
ENCODING 783
SWIDTH 0 0
DWIDTH 0 0
BBX 2 1 -4 5
BITMAP
C0
ENDCHAR
STARTCHAR pi
ENCODING 960
SWIDTH 594 0
DWIDTH 4 0
BBX 3 3 0 0
BITMAP
E0
A0
A0
ENDCHAR
STARTCHAR uni1200
ENCODING 4608
SWIDTH 533 0
DWIDTH 3 0
BBX 3 4 0 0
BITMAP
20
A0
A0
C0
ENDCHAR
STARTCHAR uni1201
ENCODING 4609
SWIDTH 779 0
DWIDTH 5 0
BBX 5 3 0 0
BITMAP
B0
A8
C0
ENDCHAR
STARTCHAR uni1202
ENCODING 4610
SWIDTH 606 0
DWIDTH 4 0
BBX 3 4 0 0
BITMAP
A0
E0
40
60
ENDCHAR
STARTCHAR uni1203
ENCODING 4611
SWIDTH 500 0
DWIDTH 3 0
BBX 3 4 0 0
BITMAP
A0
A0
40
40
ENDCHAR
STARTCHAR uni1204
ENCODING 4612
SWIDTH 565 0
DWIDTH 3 0
BBX 3 4 0 0
BITMAP
A0
C0
60
60
ENDCHAR
STARTCHAR uni1205
ENCODING 4613
SWIDTH 553 0
DWIDTH 3 0
BBX 3 4 0 0
BITMAP
20
A0
E0
E0
ENDCHAR
STARTCHAR uni1206
ENCODING 4614
SWIDTH 692 0
DWIDTH 4 0
BBX 4 4 0 0
BITMAP
30
B0
A0
C0
ENDCHAR
STARTCHAR uni1207
ENCODING 4615
SWIDTH 883 0
DWIDTH 5 0
BBX 5 4 0 0
BITMAP
08
58
D0
60
ENDCHAR
STARTCHAR uni1208
ENCODING 4616
SWIDTH 565 0
DWIDTH 3 0
BBX 3 4 0 0
BITMAP
40
60
A0
A0
ENDCHAR
STARTCHAR uni1209
ENCODING 4617
SWIDTH 772 0
DWIDTH 5 0
BBX 4 4 0 0
BITMAP
40
70
A0
A0
ENDCHAR
STARTCHAR uni120A
ENCODING 4618
SWIDTH 799 0
DWIDTH 5 0
BBX 5 4 0 0
BITMAP
40
60
A0
B8
ENDCHAR
STARTCHAR uni120B
ENCODING 4619
SWIDTH 520 0
DWIDTH 3 0
BBX 3 4 0 0
BITMAP
40
C0
A0
20
ENDCHAR
STARTCHAR uni120C
ENCODING 4620
SWIDTH 720 0
DWIDTH 4 0
BBX 4 4 0 0
BITMAP
40
60
B0
B0
ENDCHAR
STARTCHAR uni120D
ENCODING 4621
SWIDTH 740 0
DWIDTH 4 0
BBX 4 4 0 0
BITMAP
40
60
D0
D0
ENDCHAR
STARTCHAR uni120E
ENCODING 4622
SWIDTH 859 0
DWIDTH 5 0
BBX 5 4 0 0
BITMAP
40
78
A0
A0
ENDCHAR
STARTCHAR uni120F
ENCODING 4623
SWIDTH 706 0
DWIDTH 4 0
BBX 4 4 0 0
BITMAP
40
A0
A0
70
ENDCHAR
STARTCHAR uni1210
ENCODING 4624
SWIDTH 792 0
DWIDTH 5 0
BBX 5 4 0 0
BITMAP
20
20
F0
B8
ENDCHAR
STARTCHAR uni1211
ENCODING 4625
SWIDTH 973 0
DWIDTH 6 0
BBX 6 4 0 0
BITMAP
20
20
FC
BC
ENDCHAR
STARTCHAR uni1212
ENCODING 4626
SWIDTH 1025 0
DWIDTH 6 0
BBX 6 4 0 0
BITMAP
20
20
F0
BC
ENDCHAR
STARTCHAR uni1213
ENCODING 4627
SWIDTH 772 0
DWIDTH 5 0
BBX 4 4 0 0
BITMAP
20
20
F0
10
ENDCHAR
STARTCHAR uni1214
ENCODING 4628
SWIDTH 959 0
DWIDTH 6 0
BBX 6 4 0 0
BITMAP
20
20
F0
BC
ENDCHAR
STARTCHAR uni1215
ENCODING 4629
SWIDTH 799 0
DWIDTH 5 0
BBX 5 4 0 0
BITMAP
40
20
F0
B8
ENDCHAR
STARTCHAR uni1216
ENCODING 4630
SWIDTH 792 0
DWIDTH 5 0
BBX 5 4 0 0
BITMAP
20
20
F0
88
ENDCHAR
STARTCHAR uni1217
ENCODING 4631
SWIDTH 975 0
DWIDTH 6 0
BBX 6 4 0 0
BITMAP
20
30
F0
3C
ENDCHAR
STARTCHAR uni1218
ENCODING 4632
SWIDTH 933 0
DWIDTH 6 0
BBX 5 2 0 1
BITMAP
78
F8
ENDCHAR
STARTCHAR uni1219
ENCODING 4633
SWIDTH 1160 0
DWIDTH 7 0
BBX 7 2 0 1
BITMAP
FE
F8
ENDCHAR
STARTCHAR uni121A
ENCODING 4634
SWIDTH 985 0
DWIDTH 6 0
BBX 6 4 0 0
BITMAP
78
D8
10
1C
ENDCHAR
STARTCHAR uni121B
ENCODING 4635
SWIDTH 819 0
DWIDTH 5 0
BBX 5 4 0 0
BITMAP
78
D8
10
10
ENDCHAR
STARTCHAR uni121C
ENCODING 4636
SWIDTH 933 0
DWIDTH 6 0
BBX 5 4 0 0
BITMAP
78
D8
10
18
ENDCHAR
STARTCHAR uni121D
ENCODING 4637
SWIDTH 853 0
DWIDTH 5 0
BBX 5 4 0 0
BITMAP
78
D8
40
80
ENDCHAR
STARTCHAR uni121E
ENCODING 4638
SWIDTH 833 0
DWIDTH 5 0
BBX 5 4 0 0
BITMAP
78
D8
40
40
ENDCHAR
STARTCHAR uni121F
ENCODING 4639
SWIDTH 932 0
DWIDTH 6 0
BBX 5 5 0 -1
BITMAP
78
D8
10
10
28
ENDCHAR
STARTCHAR uni1220
ENCODING 4640
SWIDTH 766 0
DWIDTH 5 0
BBX 4 2 0 1
BITMAP
B0
E0
ENDCHAR
STARTCHAR uni1221
ENCODING 4641
SWIDTH 1000 0
DWIDTH 6 0
BBX 6 2 0 1
BITMAP
B4
E8
ENDCHAR
STARTCHAR uni1222
ENCODING 4642
SWIDTH 919 0
DWIDTH 6 0
BBX 5 3 0 0
BITMAP
B0
50
18
ENDCHAR
STARTCHAR uni1223
ENCODING 4643
SWIDTH 706 0
DWIDTH 4 0
BBX 4 3 0 0
BITMAP
B0
50
10
ENDCHAR
STARTCHAR uni1224
ENCODING 4644
SWIDTH 853 0
DWIDTH 5 0
BBX 5 3 0 0
BITMAP
B0
50
18
ENDCHAR
STARTCHAR uni1225
ENCODING 4645
SWIDTH 959 0
DWIDTH 6 0
BBX 6 3 0 0
BITMAP
3C
40
80
ENDCHAR
STARTCHAR uni1226
ENCODING 4646
SWIDTH 726 0
DWIDTH 4 0
BBX 4 3 0 0
BITMAP
B0
40
C0
ENDCHAR
STARTCHAR uni1227
ENCODING 4647
SWIDTH 879 0
DWIDTH 5 0
BBX 5 4 0 0
BITMAP
B0
D0
10
78
ENDCHAR
STARTCHAR uni1228
ENCODING 4648
SWIDTH 580 0
DWIDTH 3 0
BBX 3 4 0 0
BITMAP
20
40
80
E0
ENDCHAR
STARTCHAR uni1229
ENCODING 4649
SWIDTH 686 0
DWIDTH 4 0
BBX 4 4 0 0
BITMAP
40
40
F0
40
ENDCHAR
STARTCHAR uni122A
ENCODING 4650
SWIDTH 573 0
DWIDTH 3 0
BBX 3 4 0 0
BITMAP
20
20
E0
E0
ENDCHAR
STARTCHAR uni122B
ENCODING 4651
SWIDTH 752 0
DWIDTH 5 0
BBX 4 4 0 0
BITMAP
20
20
D0
E0
ENDCHAR
STARTCHAR uni122C
ENCODING 4652
SWIDTH 692 0
DWIDTH 4 0
BBX 4 4 0 0
BITMAP
20
40
A0
F0
ENDCHAR
STARTCHAR uni122D
ENCODING 4653
SWIDTH 585 0
DWIDTH 4 0
BBX 3 4 0 0
BITMAP
20
C0
80
E0
ENDCHAR
STARTCHAR uni122E
ENCODING 4654
SWIDTH 680 0
DWIDTH 4 0
BBX 4 4 0 0
BITMAP
30
F0
80
E0
ENDCHAR
STARTCHAR uni122F
ENCODING 4655
SWIDTH 758 0
DWIDTH 5 0
BBX 4 4 0 0
BITMAP
50
20
50
E0
ENDCHAR
STARTCHAR uni1230
ENCODING 4656
SWIDTH 553 0
DWIDTH 3 0
BBX 3 4 0 0
BITMAP
40
A0
A0
A0
ENDCHAR
STARTCHAR uni1231
ENCODING 4657
SWIDTH 752 0
DWIDTH 5 0
BBX 4 4 0 0
BITMAP
40
A0
B0
A0
ENDCHAR
STARTCHAR uni1232
ENCODING 4658
SWIDTH 786 0
DWIDTH 5 0
BBX 4 4 0 0
BITMAP
40
A0
A0
B0
ENDCHAR
STARTCHAR uni1233
ENCODING 4659
SWIDTH 553 0
DWIDTH 3 0
BBX 3 4 0 0
BITMAP
40
A0
A0
20
ENDCHAR
STARTCHAR uni1234
ENCODING 4660
SWIDTH 700 0
DWIDTH 4 0
BBX 4 4 0 0
BITMAP
40
A0
A0
B0
ENDCHAR
STARTCHAR uni1235
ENCODING 4661
SWIDTH 553 0
DWIDTH 3 0
BBX 3 4 0 0
BITMAP
40
A0
A0
A0
ENDCHAR
STARTCHAR uni1236
ENCODING 4662
SWIDTH 565 0
DWIDTH 3 0
BBX 3 4 0 0
BITMAP
40
A0
A0
80
ENDCHAR
STARTCHAR uni1237
ENCODING 4663
SWIDTH 700 0
DWIDTH 4 0
BBX 4 5 0 -1
BITMAP
40
A0
A0
20
D0
ENDCHAR
STARTCHAR uni1238
ENCODING 4664
SWIDTH 640 0
DWIDTH 4 0
BBX 4 5 0 0
BITMAP
10
E0
A0
A0
A0
ENDCHAR
STARTCHAR uni1239
ENCODING 4665
SWIDTH 766 0
DWIDTH 5 0
BBX 4 5 0 0
BITMAP
10
E0
A0
B0
A0
ENDCHAR
STARTCHAR uni123A
ENCODING 4666
SWIDTH 766 0
DWIDTH 5 0
BBX 4 5 0 0
BITMAP
10
E0
A0
A0
B0
ENDCHAR
STARTCHAR uni123B
ENCODING 4667
SWIDTH 646 0
DWIDTH 4 0
BBX 4 5 0 0
BITMAP
10
E0
A0
A0
20
ENDCHAR
STARTCHAR uni123C
ENCODING 4668
SWIDTH 726 0
DWIDTH 4 0
BBX 4 5 0 0
BITMAP
10
E0
A0
A0
B0
ENDCHAR
STARTCHAR uni123D
ENCODING 4669
SWIDTH 640 0
DWIDTH 4 0
BBX 4 5 0 0
BITMAP
20
D0
60
70
70
ENDCHAR
STARTCHAR uni123E
ENCODING 4670
SWIDTH 660 0
DWIDTH 4 0
BBX 4 5 0 0
BITMAP
10
E0
A0
A0
80
ENDCHAR
STARTCHAR uni123F
ENCODING 4671
SWIDTH 738 0
DWIDTH 4 0
BBX 4 5 0 -1
BITMAP
F0
A0
A0
20
D0
ENDCHAR
STARTCHAR uni1240
ENCODING 4672
SWIDTH 660 0
DWIDTH 4 0
BBX 4 4 0 0
BITMAP
20
D0
E0
40
ENDCHAR
STARTCHAR uni1241
ENCODING 4673
SWIDTH 680 0
DWIDTH 4 0
BBX 4 4 0 0
BITMAP
20
F0
C0
70
ENDCHAR
STARTCHAR uni1242
ENCODING 4674
SWIDTH 659 0
DWIDTH 4 0
BBX 4 4 0 0
BITMAP
20
D0
E0
70
ENDCHAR
STARTCHAR uni1243
ENCODING 4675
SWIDTH 792 0
DWIDTH 5 0
BBX 5 4 0 0
BITMAP
20
78
30
C0
ENDCHAR
STARTCHAR uni1244
ENCODING 4676
SWIDTH 666 0
DWIDTH 4 0
BBX 4 4 0 0
BITMAP
20
D0
E0
60
ENDCHAR
STARTCHAR uni1245
ENCODING 4677
SWIDTH 660 0
DWIDTH 4 0
BBX 4 5 0 0
BITMAP
40
20
D0
E0
40
ENDCHAR
STARTCHAR uni1246
ENCODING 4678
SWIDTH 652 0
DWIDTH 4 0
BBX 4 4 0 0
BITMAP
60
60
D0
60
ENDCHAR
STARTCHAR uni1247
ENCODING 4679
SWIDTH 652 0
DWIDTH 4 0
BBX 4 5 0 -1
BITMAP
60
60
D0
60
80
ENDCHAR
STARTCHAR uni1248
ENCODING 4680
SWIDTH 720 0
DWIDTH 4 0
BBX 4 4 0 0
BITMAP
40
E0
40
70
ENDCHAR
STARTCHAR uni124A
ENCODING 4682
SWIDTH 1046 0
DWIDTH 6 0
BBX 6 4 0 0
BITMAP
20
F8
44
60
ENDCHAR
STARTCHAR uni124B
ENCODING 4683
SWIDTH 626 0
DWIDTH 4 0
BBX 4 4 0 0
BITMAP
60
F0
40
A0
ENDCHAR
STARTCHAR uni124C
ENCODING 4684
SWIDTH 692 0
DWIDTH 4 0
BBX 4 5 0 -1
BITMAP
20
F0
70
60
80
ENDCHAR
STARTCHAR uni124D
ENCODING 4685
SWIDTH 986 0
DWIDTH 6 0
BBX 6 4 0 0
BITMAP
40
FC
60
40
ENDCHAR
STARTCHAR uni1250
ENCODING 4688
SWIDTH 679 0
DWIDTH 4 0
BBX 4 5 0 0
BITMAP
10
E0
F0
40
40
ENDCHAR
STARTCHAR uni1251
ENCODING 4689
SWIDTH 699 0
DWIDTH 4 0
BBX 4 5 0 0
BITMAP
10
E0
F0
C0
70
ENDCHAR
STARTCHAR uni1252
ENCODING 4690
SWIDTH 680 0
DWIDTH 4 0
BBX 4 5 0 0
BITMAP
10
E0
F0
C0
70
ENDCHAR
STARTCHAR uni1253
ENCODING 4691
SWIDTH 792 0
DWIDTH 5 0
BBX 5 5 0 0
BITMAP
10
68
78
30
C0
ENDCHAR
STARTCHAR uni1254
ENCODING 4692
SWIDTH 679 0
DWIDTH 4 0
BBX 4 5 0 0
BITMAP
10
E0
F0
C0
70
ENDCHAR
STARTCHAR uni1255
ENCODING 4693
SWIDTH 752 0
DWIDTH 5 0
BBX 4 5 0 0
BITMAP
90
60
30
70
20
ENDCHAR
STARTCHAR uni1256
ENCODING 4694
SWIDTH 740 0
DWIDTH 4 0
BBX 4 5 0 0
BITMAP
90
60
40
F0
60
ENDCHAR
STARTCHAR uni1258
ENCODING 4696
SWIDTH 720 0
DWIDTH 4 0
BBX 4 5 0 0
BITMAP
10
E0
E0
40
70
ENDCHAR
STARTCHAR uni125A
ENCODING 4698
SWIDTH 1046 0
DWIDTH 6 0
BBX 6 5 0 0
BITMAP
10
E0
F8
C4
60
ENDCHAR
STARTCHAR uni125B
ENCODING 4699
SWIDTH 645 0
DWIDTH 4 0
BBX 4 5 0 0
BITMAP
10
E0
D0
60
A0
ENDCHAR
STARTCHAR uni125C
ENCODING 4700
SWIDTH 712 0
DWIDTH 4 0
BBX 4 5 0 0
BITMAP
10
E0
F0
70
C0
ENDCHAR
STARTCHAR uni125D
ENCODING 4701
SWIDTH 985 0
DWIDTH 6 0
BBX 6 5 0 0
BITMAP
10
E8
F4
60
40
ENDCHAR
STARTCHAR uni1260
ENCODING 4704
SWIDTH 533 0
DWIDTH 3 0
BBX 3 4 0 0
BITMAP
E0
A0
A0
A0
ENDCHAR
STARTCHAR uni1261
ENCODING 4705
SWIDTH 759 0
DWIDTH 5 0
BBX 4 4 0 0
BITMAP
E0
B0
A0
A0
ENDCHAR
STARTCHAR uni1262
ENCODING 4706
SWIDTH 759 0
DWIDTH 5 0
BBX 4 4 0 0
BITMAP
E0
A0
A0
B0
ENDCHAR
STARTCHAR uni1263
ENCODING 4707
SWIDTH 533 0
DWIDTH 3 0
BBX 3 4 0 0
BITMAP
E0
A0
A0
20
ENDCHAR
STARTCHAR uni1264
ENCODING 4708
SWIDTH 726 0
DWIDTH 4 0
BBX 4 4 0 0
BITMAP
E0
A0
A0
B0
ENDCHAR
STARTCHAR uni1265
ENCODING 4709
SWIDTH 732 0
DWIDTH 4 0
BBX 4 4 0 0
BITMAP
30
50
D0
70
ENDCHAR
STARTCHAR uni1266
ENCODING 4710
SWIDTH 533 0
DWIDTH 3 0
BBX 3 4 0 0
BITMAP
E0
A0
A0
80
ENDCHAR
STARTCHAR uni1267
ENCODING 4711
SWIDTH 720 0
DWIDTH 4 0
BBX 4 5 0 -1
BITMAP
60
A0
A0
30
C0
ENDCHAR
STARTCHAR uni1268
ENCODING 4712
SWIDTH 632 0
DWIDTH 4 0
BBX 4 4 0 0
BITMAP
F0
E0
A0
E0
ENDCHAR
STARTCHAR uni1269
ENCODING 4713
SWIDTH 799 0
DWIDTH 5 0
BBX 5 4 0 0
BITMAP
F0
E0
B8
E8
ENDCHAR
STARTCHAR uni126A
ENCODING 4714
SWIDTH 799 0
DWIDTH 5 0
BBX 5 4 0 0
BITMAP
F0
E0
A0
F8
ENDCHAR
STARTCHAR uni126B
ENCODING 4715
SWIDTH 632 0
DWIDTH 4 0
BBX 4 4 0 0
BITMAP
F0
E0
A0
20
ENDCHAR
STARTCHAR uni126C
ENCODING 4716
SWIDTH 753 0
DWIDTH 5 0
BBX 4 4 0 0
BITMAP
F0
E0
A0
F0
ENDCHAR
STARTCHAR uni126D
ENCODING 4717
SWIDTH 806 0
DWIDTH 5 0
BBX 5 4 0 0
BITMAP
78
30
D0
70
ENDCHAR
STARTCHAR uni126E
ENCODING 4718
SWIDTH 632 0
DWIDTH 4 0
BBX 4 4 0 0
BITMAP
F0
E0
A0
C0
ENDCHAR
STARTCHAR uni126F
ENCODING 4719
SWIDTH 769 0
DWIDTH 5 0
BBX 4 5 0 -1
BITMAP
F0
E0
A0
30
40
ENDCHAR
STARTCHAR uni1270
ENCODING 4720
SWIDTH 725 0
DWIDTH 4 0
BBX 4 4 0 0
BITMAP
20
70
A0
60
ENDCHAR
STARTCHAR uni1271
ENCODING 4721
SWIDTH 725 0
DWIDTH 4 0
BBX 4 4 0 0
BITMAP
20
70
B0
60
ENDCHAR
STARTCHAR uni1272
ENCODING 4722
SWIDTH 725 0
DWIDTH 4 0
BBX 4 4 0 0
BITMAP
20
70
A0
70
ENDCHAR
STARTCHAR uni1273
ENCODING 4723
SWIDTH 826 0
DWIDTH 5 0
BBX 5 4 0 0
BITMAP
20
78
20
C0
ENDCHAR
STARTCHAR uni1274
ENCODING 4724
SWIDTH 725 0
DWIDTH 4 0
BBX 4 4 0 0
BITMAP
20
70
A0
70
ENDCHAR
STARTCHAR uni1275
ENCODING 4725
SWIDTH 725 0
DWIDTH 4 0
BBX 4 4 0 0
BITMAP
60
70
A0
60
ENDCHAR
STARTCHAR uni1276
ENCODING 4726
SWIDTH 707 0
DWIDTH 4 0
BBX 4 4 0 0
BITMAP
60
20
D0
60
ENDCHAR
STARTCHAR uni1277
ENCODING 4727
SWIDTH 766 0
DWIDTH 5 0
BBX 4 5 0 -1
BITMAP
20
F0
20
30
C0
ENDCHAR
STARTCHAR uni1278
ENCODING 4728
SWIDTH 712 0
DWIDTH 4 0
BBX 4 4 0 0
BITMAP
F0
F0
C0
40
ENDCHAR
STARTCHAR uni1279
ENCODING 4729
SWIDTH 712 0
DWIDTH 4 0
BBX 4 4 0 0
BITMAP
F0
F0
C0
70
ENDCHAR
STARTCHAR uni127A
ENCODING 4730
SWIDTH 712 0
DWIDTH 4 0
BBX 4 4 0 0
BITMAP
F0
F0
C0
70
ENDCHAR
STARTCHAR uni127B
ENCODING 4731
SWIDTH 746 0
DWIDTH 4 0
BBX 4 4 0 0
BITMAP
70
30
60
C0
ENDCHAR
STARTCHAR uni127C
ENCODING 4732
SWIDTH 712 0
DWIDTH 4 0
BBX 4 4 0 0
BITMAP
F0
F0
C0
70
ENDCHAR
STARTCHAR uni127D
ENCODING 4733
SWIDTH 740 0
DWIDTH 4 0
BBX 4 5 0 0
BITMAP
B0
70
70
A0
60
ENDCHAR
STARTCHAR uni127E
ENCODING 4734
SWIDTH 726 0
DWIDTH 4 0
BBX 4 5 0 0
BITMAP
10
60
20
D0
60
ENDCHAR
STARTCHAR uni127F
ENCODING 4735
SWIDTH 751 0
DWIDTH 5 0
BBX 4 5 0 -1
BITMAP
50
20
F0
20
D0
ENDCHAR
STARTCHAR uni1280
ENCODING 4736
SWIDTH 625 0
DWIDTH 4 0
BBX 4 4 0 0
BITMAP
20
D0
20
20
ENDCHAR
STARTCHAR uni1281
ENCODING 4737
SWIDTH 859 0
DWIDTH 5 0
BBX 5 4 0 0
BITMAP
20
D0
28
20
ENDCHAR
STARTCHAR uni1282
ENCODING 4738
SWIDTH 772 0
DWIDTH 5 0
BBX 4 4 0 0
BITMAP
20
D0
20
30
ENDCHAR
STARTCHAR uni1283
ENCODING 4739
SWIDTH 652 0
DWIDTH 4 0
BBX 4 4 0 0
BITMAP
20
D0
10
E0
ENDCHAR
STARTCHAR uni1284
ENCODING 4740
SWIDTH 806 0
DWIDTH 5 0
BBX 5 4 0 0
BITMAP
20
D0
20
38
ENDCHAR
STARTCHAR uni1285
ENCODING 4741
SWIDTH 565 0
DWIDTH 3 0
BBX 3 4 0 0
BITMAP
20
E0
20
20
ENDCHAR
STARTCHAR uni1286
ENCODING 4742
SWIDTH 886 0
DWIDTH 5 0
BBX 5 4 0 0
BITMAP
38
C0
30
10
ENDCHAR
STARTCHAR uni1287
ENCODING 4743
SWIDTH 886 0
DWIDTH 5 0
BBX 5 5 0 -1
BITMAP
38
C0
30
10
60
ENDCHAR
STARTCHAR uni1288
ENCODING 4744
SWIDTH 973 0
DWIDTH 6 0
BBX 6 4 0 0
BITMAP
20
E0
3C
28
ENDCHAR
STARTCHAR uni128A
ENCODING 4746
SWIDTH 973 0
DWIDTH 6 0
BBX 6 4 0 0
BITMAP
20
E8
30
2C
ENDCHAR
STARTCHAR uni128B
ENCODING 4747
SWIDTH 640 0
DWIDTH 4 0
BBX 4 4 0 0
BITMAP
40
A0
20
D0
ENDCHAR
STARTCHAR uni128C
ENCODING 4748
SWIDTH 712 0
DWIDTH 4 0
BBX 4 4 0 0
BITMAP
20
E0
30
40
ENDCHAR
STARTCHAR uni128D
ENCODING 4749
SWIDTH 934 0
DWIDTH 6 0
BBX 5 4 0 0
BITMAP
20
E0
38
20
ENDCHAR
STARTCHAR uni1290
ENCODING 4752
SWIDTH 386 0
DWIDTH 2 0
BBX 2 4 0 0
BITMAP
80
C0
40
40
ENDCHAR
STARTCHAR uni1291
ENCODING 4753
SWIDTH 565 0
DWIDTH 3 0
BBX 3 4 0 0
BITMAP
80
C0
60
40
ENDCHAR
STARTCHAR uni1292
ENCODING 4754
SWIDTH 505 0
DWIDTH 3 0
BBX 3 4 0 0
BITMAP
80
C0
40
E0
ENDCHAR
STARTCHAR uni1293
ENCODING 4755
SWIDTH 573 0
DWIDTH 3 0
BBX 3 4 0 0
BITMAP
60
80
60
40
ENDCHAR
STARTCHAR uni1294
ENCODING 4756
SWIDTH 500 0
DWIDTH 3 0
BBX 3 4 0 0
BITMAP
80
C0
40
E0
ENDCHAR
STARTCHAR uni1295
ENCODING 4757
SWIDTH 545 0
DWIDTH 3 0
BBX 3 4 0 0
BITMAP
E0
40
20
40
ENDCHAR
STARTCHAR uni1296
ENCODING 4758
SWIDTH 660 0
DWIDTH 4 0
BBX 4 4 0 0
BITMAP
F0
80
60
60
ENDCHAR
STARTCHAR uni1297
ENCODING 4759
SWIDTH 600 0
DWIDTH 4 0
BBX 3 5 0 -1
BITMAP
60
80
60
40
A0
ENDCHAR
STARTCHAR uni1298
ENCODING 4760
SWIDTH 666 0
DWIDTH 4 0
BBX 4 4 0 0
BITMAP
F0
60
20
60
ENDCHAR
STARTCHAR uni1299
ENCODING 4761
SWIDTH 772 0
DWIDTH 5 0
BBX 5 4 0 0
BITMAP
F0
60
30
68
ENDCHAR
STARTCHAR uni129A
ENCODING 4762
SWIDTH 692 0
DWIDTH 4 0
BBX 4 4 0 0
BITMAP
F0
60
20
70
ENDCHAR
STARTCHAR uni129B
ENCODING 4763
SWIDTH 652 0
DWIDTH 4 0
BBX 4 5 0 0
BITMAP
10
E0
B0
40
40
ENDCHAR
STARTCHAR uni129C
ENCODING 4764
SWIDTH 679 0
DWIDTH 4 0
BBX 4 4 0 0
BITMAP
F0
60
20
30
ENDCHAR
STARTCHAR uni129D
ENCODING 4765
SWIDTH 640 0
DWIDTH 4 0
BBX 4 5 0 0
BITMAP
90
60
A0
30
20
ENDCHAR
STARTCHAR uni129E
ENCODING 4766
SWIDTH 712 0
DWIDTH 4 0
BBX 4 5 0 0
BITMAP
10
E0
B0
60
60
ENDCHAR
STARTCHAR uni129F
ENCODING 4767
SWIDTH 631 0
DWIDTH 4 0
BBX 4 5 0 -1
BITMAP
E0
A0
E0
40
B0
ENDCHAR
STARTCHAR uni12A0
ENCODING 4768
SWIDTH 612 0
DWIDTH 4 0
BBX 3 4 0 0
BITMAP
40
60
60
A0
ENDCHAR
STARTCHAR uni12A1
ENCODING 4769
SWIDTH 853 0
DWIDTH 5 0
BBX 5 4 0 0
BITMAP
40
60
78
A0
ENDCHAR
STARTCHAR uni12A2
ENCODING 4770
SWIDTH 859 0
DWIDTH 5 0
BBX 5 4 0 0
BITMAP
40
60
60
B8
ENDCHAR
STARTCHAR uni12A3
ENCODING 4771
SWIDTH 632 0
DWIDTH 4 0
BBX 4 4 0 0
BITMAP
40
60
60
B0
ENDCHAR
STARTCHAR uni12A4
ENCODING 4772
SWIDTH 720 0
DWIDTH 4 0
BBX 4 4 0 0
BITMAP
80
40
A0
B0
ENDCHAR
STARTCHAR uni12A5
ENCODING 4773
SWIDTH 600 0
DWIDTH 4 0
BBX 3 4 0 0
BITMAP
80
40
A0
A0
ENDCHAR
STARTCHAR uni12A6
ENCODING 4774
SWIDTH 600 0
DWIDTH 4 0
BBX 3 4 0 0
BITMAP
40
C0
60
A0
ENDCHAR
STARTCHAR uni12A7
ENCODING 4775
SWIDTH 671 0
DWIDTH 4 0
BBX 4 5 0 0
BITMAP
A0
40
60
60
D0
ENDCHAR
STARTCHAR uni12A8
ENCODING 4776
SWIDTH 565 0
DWIDTH 3 0
BBX 3 4 0 0
BITMAP
80
E0
A0
A0
ENDCHAR
STARTCHAR uni12A9
ENCODING 4777
SWIDTH 779 0
DWIDTH 5 0
BBX 5 4 0 0
BITMAP
80
E0
B8
A0
ENDCHAR
STARTCHAR uni12AA
ENCODING 4778
SWIDTH 792 0
DWIDTH 5 0
BBX 5 4 0 0
BITMAP
80
E0
A0
B8
ENDCHAR
STARTCHAR uni12AB
ENCODING 4779
SWIDTH 565 0
DWIDTH 3 0
BBX 3 4 0 0
BITMAP
80
E0
A0
20
ENDCHAR
STARTCHAR uni12AC
ENCODING 4780
SWIDTH 779 0
DWIDTH 5 0
BBX 4 4 0 0
BITMAP
80
60
A0
F0
ENDCHAR
STARTCHAR uni12AD
ENCODING 4781
SWIDTH 600 0
DWIDTH 4 0
BBX 3 4 0 0
BITMAP
80
60
E0
A0
ENDCHAR
STARTCHAR uni12AE
ENCODING 4782
SWIDTH 553 0
DWIDTH 3 0
BBX 3 4 0 0
BITMAP
80
E0
A0
80
ENDCHAR
STARTCHAR uni12AF
ENCODING 4783
SWIDTH 729 0
DWIDTH 4 0
BBX 4 4 0 0
BITMAP
40
70
D0
40
ENDCHAR
STARTCHAR uni12B0
ENCODING 4784
SWIDTH 866 0
DWIDTH 5 0
BBX 5 4 0 0
BITMAP
80
E0
B8
A0
ENDCHAR
STARTCHAR uni12B2
ENCODING 4786
SWIDTH 934 0
DWIDTH 6 0
BBX 5 4 0 0
BITMAP
80
F0
B8
A0
ENDCHAR
STARTCHAR uni12B3
ENCODING 4787
SWIDTH 720 0
DWIDTH 4 0
BBX 4 4 0 0
BITMAP
80
E0
20
50
ENDCHAR
STARTCHAR uni12B4
ENCODING 4788
SWIDTH 706 0
DWIDTH 4 0
BBX 4 4 0 0
BITMAP
80
E0
B0
70
ENDCHAR
STARTCHAR uni12B5
ENCODING 4789
SWIDTH 786 0
DWIDTH 5 0
BBX 5 4 0 0
BITMAP
A0
F0
A8
A0
ENDCHAR
STARTCHAR uni12B8
ENCODING 4792
SWIDTH 712 0
DWIDTH 4 0
BBX 4 4 0 0
BITMAP
F0
30
50
50
ENDCHAR
STARTCHAR uni12B9
ENCODING 4793
SWIDTH 934 0
DWIDTH 6 0
BBX 5 4 0 0
BITMAP
F0
30
58
50
ENDCHAR
STARTCHAR uni12BA
ENCODING 4794
SWIDTH 945 0
DWIDTH 6 0
BBX 5 4 0 0
BITMAP
F0
30
50
58
ENDCHAR
STARTCHAR uni12BB
ENCODING 4795
SWIDTH 712 0
DWIDTH 4 0
BBX 4 4 0 0
BITMAP
F0
30
50
30
ENDCHAR
STARTCHAR uni12BC
ENCODING 4796
SWIDTH 893 0
DWIDTH 5 0
BBX 5 4 0 0
BITMAP
F0
30
50
58
ENDCHAR
STARTCHAR uni12BD
ENCODING 4797
SWIDTH 792 0
DWIDTH 5 0
BBX 5 4 0 0
BITMAP
F0
30
38
70
ENDCHAR
STARTCHAR uni12BE
ENCODING 4798
SWIDTH 732 0
DWIDTH 4 0
BBX 4 4 0 0
BITMAP
F0
30
50
40
ENDCHAR
STARTCHAR uni12C0
ENCODING 4800
SWIDTH 1065 0
DWIDTH 6 0
BBX 6 5 0 0
BITMAP
10
E0
30
5C
70
ENDCHAR
STARTCHAR uni12C2
ENCODING 4802
SWIDTH 1139 0
DWIDTH 7 0
BBX 7 5 0 0
BITMAP
10
E0
34
5C
72
ENDCHAR
STARTCHAR uni12C3
ENCODING 4803
SWIDTH 807 0
DWIDTH 5 0
BBX 5 5 0 0
BITMAP
20
C0
70
50
78
ENDCHAR
STARTCHAR uni12C4
ENCODING 4804
SWIDTH 905 0
DWIDTH 5 0
BBX 5 6 0 -1
BITMAP
10
E0
30
50
38
20
ENDCHAR
STARTCHAR uni12C5
ENCODING 4805
SWIDTH 1040 0
DWIDTH 6 0
BBX 6 5 0 0
BITMAP
10
E8
34
50
70
ENDCHAR
STARTCHAR uni12C8
ENCODING 4808
SWIDTH 700 0
DWIDTH 4 0
BBX 4 3 0 1
BITMAP
20
F0
F0
ENDCHAR
STARTCHAR uni12C9
ENCODING 4809
SWIDTH 893 0
DWIDTH 5 0
BBX 5 4 0 0
BITMAP
20
F0
D0
28
ENDCHAR
STARTCHAR uni12CA
ENCODING 4810
SWIDTH 666 0
DWIDTH 4 0
BBX 4 4 0 0
BITMAP
70
D0
60
70
ENDCHAR
STARTCHAR uni12CB
ENCODING 4811
SWIDTH 652 0
DWIDTH 4 0
BBX 4 4 0 0
BITMAP
70
D0
60
40
ENDCHAR
STARTCHAR uni12CC
ENCODING 4812
SWIDTH 652 0
DWIDTH 4 0
BBX 4 4 0 0
BITMAP
70
D0
60
70
ENDCHAR
STARTCHAR uni12CD
ENCODING 4813
SWIDTH 939 0
DWIDTH 6 0
BBX 6 3 0 1
BITMAP
20
F8
F4
ENDCHAR
STARTCHAR uni12CE
ENCODING 4814
SWIDTH 726 0
DWIDTH 4 0
BBX 4 4 0 0
BITMAP
70
B0
40
80
ENDCHAR
STARTCHAR uni12CF
ENCODING 4815
SWIDTH 906 0
DWIDTH 5 0
BBX 5 4 0 0
BITMAP
38
D8
20
40
ENDCHAR
STARTCHAR uni12D0
ENCODING 4816
SWIDTH 545 0
DWIDTH 3 0
BBX 3 3 0 0
BITMAP
E0
A0
E0
ENDCHAR
STARTCHAR uni12D1
ENCODING 4817
SWIDTH 786 0
DWIDTH 5 0
BBX 5 3 0 0
BITMAP
E0
B8
E0
ENDCHAR
STARTCHAR uni12D2
ENCODING 4818
SWIDTH 786 0
DWIDTH 5 0
BBX 5 4 0 0
BITMAP
60
A0
60
38
ENDCHAR
STARTCHAR uni12D3
ENCODING 4819
SWIDTH 586 0
DWIDTH 4 0
BBX 3 4 0 0
BITMAP
60
A0
60
20
ENDCHAR
STARTCHAR uni12D4
ENCODING 4820
SWIDTH 720 0
DWIDTH 4 0
BBX 4 4 0 0
BITMAP
60
A0
60
30
ENDCHAR
STARTCHAR uni12D5
ENCODING 4821
SWIDTH 500 0
DWIDTH 3 0
BBX 3 4 0 0
BITMAP
40
A0
A0
C0
ENDCHAR
STARTCHAR uni12D6
ENCODING 4822
SWIDTH 580 0
DWIDTH 3 0
BBX 3 4 0 0
BITMAP
60
60
40
80
ENDCHAR
STARTCHAR uni12D8
ENCODING 4824
SWIDTH 493 0
DWIDTH 3 0
BBX 3 4 0 0
BITMAP
20
E0
A0
A0
ENDCHAR
STARTCHAR uni12D9
ENCODING 4825
SWIDTH 752 0
DWIDTH 5 0
BBX 4 4 0 0
BITMAP
20
B0
E0
A0
ENDCHAR
STARTCHAR uni12DA
ENCODING 4826
SWIDTH 720 0
DWIDTH 4 0
BBX 4 4 0 0
BITMAP
20
E0
A0
B0
ENDCHAR
STARTCHAR uni12DB
ENCODING 4827
SWIDTH 473 0
DWIDTH 3 0
BBX 3 4 0 0
BITMAP
40
A0
E0
60
ENDCHAR
STARTCHAR uni12DC
ENCODING 4828
SWIDTH 672 0
DWIDTH 4 0
BBX 4 4 0 0
BITMAP
20
E0
A0
B0
ENDCHAR
STARTCHAR uni12DD
ENCODING 4829
SWIDTH 632 0
DWIDTH 4 0
BBX 4 4 0 0
BITMAP
10
F0
60
60
ENDCHAR
STARTCHAR uni12DE
ENCODING 4830
SWIDTH 493 0
DWIDTH 3 0
BBX 3 4 0 0
BITMAP
20
E0
A0
80
ENDCHAR
STARTCHAR uni12DF
ENCODING 4831
SWIDTH 686 0
DWIDTH 4 0
BBX 4 5 0 -1
BITMAP
20
E0
E0
20
D0
ENDCHAR
STARTCHAR uni12E0
ENCODING 4832
SWIDTH 919 0
DWIDTH 6 0
BBX 5 4 0 0
BITMAP
08
D0
70
50
ENDCHAR
STARTCHAR uni12E1
ENCODING 4833
SWIDTH 913 0
DWIDTH 5 0
BBX 5 4 0 0
BITMAP
08
D0
78
50
ENDCHAR
STARTCHAR uni12E2
ENCODING 4834
SWIDTH 919 0
DWIDTH 6 0
BBX 5 4 0 0
BITMAP
08
D0
70
58
ENDCHAR
STARTCHAR uni12E3
ENCODING 4835
SWIDTH 919 0
DWIDTH 6 0
BBX 5 4 0 0
BITMAP
08
D0
70
30
ENDCHAR
STARTCHAR uni12E4
ENCODING 4836
SWIDTH 919 0
DWIDTH 6 0
BBX 5 4 0 0
BITMAP
08
D0
70
58
ENDCHAR
STARTCHAR uni12E5
ENCODING 4837
SWIDTH 919 0
DWIDTH 6 0
BBX 5 5 0 0
BITMAP
A0
40
D8
70
50
ENDCHAR
STARTCHAR uni12E6
ENCODING 4838
SWIDTH 919 0
DWIDTH 6 0
BBX 5 4 0 0
BITMAP
08
F0
70
40
ENDCHAR
STARTCHAR uni12E7
ENCODING 4839
SWIDTH 959 0
DWIDTH 6 0
BBX 6 5 0 -1
BITMAP
08
F4
50
30
68
ENDCHAR
STARTCHAR uni12E8
ENCODING 4840
SWIDTH 433 0
DWIDTH 3 0
BBX 2 4 0 0
BITMAP
C0
C0
80
C0
ENDCHAR
STARTCHAR uni12E9
ENCODING 4841
SWIDTH 560 0
DWIDTH 3 0
BBX 3 4 0 0
BITMAP
E0
C0
60
40
ENDCHAR
STARTCHAR uni12EA
ENCODING 4842
SWIDTH 720 0
DWIDTH 4 0
BBX 4 4 0 0
BITMAP
E0
C0
A0
50
ENDCHAR
STARTCHAR uni12EB
ENCODING 4843
SWIDTH 586 0
DWIDTH 4 0
BBX 3 4 0 0
BITMAP
60
60
40
C0
ENDCHAR
STARTCHAR uni12EC
ENCODING 4844
SWIDTH 692 0
DWIDTH 4 0
BBX 4 4 0 0
BITMAP
C0
C0
70
C0
ENDCHAR
STARTCHAR uni12ED
ENCODING 4845
SWIDTH 692 0
DWIDTH 4 0
BBX 4 4 0 0
BITMAP
20
60
50
F0
ENDCHAR
STARTCHAR uni12EE
ENCODING 4846
SWIDTH 632 0
DWIDTH 4 0
BBX 4 4 0 0
BITMAP
C0
F0
80
C0
ENDCHAR
STARTCHAR uni12EF
ENCODING 4847
SWIDTH 843 0
DWIDTH 5 0
BBX 5 4 0 0
BITMAP
30
68
A0
20
ENDCHAR
STARTCHAR uni12F0
ENCODING 4848
SWIDTH 660 0
DWIDTH 4 0
BBX 4 4 0 0
BITMAP
60
60
40
B0
ENDCHAR
STARTCHAR uni12F1
ENCODING 4849
SWIDTH 839 0
DWIDTH 5 0
BBX 5 4 0 0
BITMAP
60
60
A0
38
ENDCHAR
STARTCHAR uni12F2
ENCODING 4850
SWIDTH 779 0
DWIDTH 5 0
BBX 4 4 0 0
BITMAP
60
60
A0
30
ENDCHAR
STARTCHAR uni12F3
ENCODING 4851
SWIDTH 620 0
DWIDTH 4 0
BBX 3 4 0 0
BITMAP
60
60
A0
20
ENDCHAR
STARTCHAR uni12F4
ENCODING 4852
SWIDTH 846 0
DWIDTH 5 0
BBX 5 4 0 0
BITMAP
60
60
40
B8
ENDCHAR
STARTCHAR uni12F5
ENCODING 4853
SWIDTH 819 0
DWIDTH 5 0
BBX 5 4 0 0
BITMAP
60
78
40
B0
ENDCHAR
STARTCHAR uni12F6
ENCODING 4854
SWIDTH 740 0
DWIDTH 4 0
BBX 4 4 0 0
BITMAP
60
60
70
80
ENDCHAR
STARTCHAR uni12F7
ENCODING 4855
SWIDTH 933 0
DWIDTH 6 0
BBX 5 5 0 -1
BITMAP
20
60
40
B0
28
ENDCHAR
STARTCHAR uni12F8
ENCODING 4856
SWIDTH 706 0
DWIDTH 4 0
BBX 4 5 0 0
BITMAP
20
60
60
40
B0
ENDCHAR
STARTCHAR uni12F9
ENCODING 4857
SWIDTH 853 0
DWIDTH 5 0
BBX 5 5 0 0
BITMAP
20
60
60
B0
38
ENDCHAR
STARTCHAR uni12FA
ENCODING 4858
SWIDTH 779 0
DWIDTH 5 0
BBX 4 5 0 0
BITMAP
20
60
60
B0
30
ENDCHAR
STARTCHAR uni12FB
ENCODING 4859
SWIDTH 600 0
DWIDTH 4 0
BBX 3 5 0 0
BITMAP
20
60
60
A0
20
ENDCHAR
STARTCHAR uni12FC
ENCODING 4860
SWIDTH 867 0
DWIDTH 5 0
BBX 5 5 0 0
BITMAP
20
60
60
40
B8
ENDCHAR
STARTCHAR uni12FD
ENCODING 4861
SWIDTH 807 0
DWIDTH 5 0
BBX 5 5 0 0
BITMAP
20
60
78
40
B0
ENDCHAR
STARTCHAR uni12FE
ENCODING 4862
SWIDTH 740 0
DWIDTH 4 0
BBX 4 5 0 0
BITMAP
40
60
60
50
80
ENDCHAR
STARTCHAR uni12FF
ENCODING 4863
SWIDTH 933 0
DWIDTH 6 0
BBX 5 5 0 0
BITMAP
20
60
60
40
B8
ENDCHAR
STARTCHAR uni1300
ENCODING 4864
SWIDTH 720 0
DWIDTH 4 0
BBX 4 5 0 -1
BITMAP
F0
60
40
40
B0
ENDCHAR
STARTCHAR uni1301
ENCODING 4865
SWIDTH 792 0
DWIDTH 5 0
BBX 5 5 0 0
BITMAP
10
E0
60
40
B8
ENDCHAR
STARTCHAR uni1302
ENCODING 4866
SWIDTH 746 0
DWIDTH 4 0
BBX 4 6 0 -1
BITMAP
10
E0
60
60
A0
10
ENDCHAR
STARTCHAR uni1303
ENCODING 4867
SWIDTH 646 0
DWIDTH 4 0
BBX 4 4 0 0
BITMAP
F0
60
40
A0
ENDCHAR
STARTCHAR uni1304
ENCODING 4868
SWIDTH 766 0
DWIDTH 5 0
BBX 4 5 0 -1
BITMAP
F0
60
40
40
B0
ENDCHAR
STARTCHAR uni1305
ENCODING 4869
SWIDTH 799 0
DWIDTH 5 0
BBX 5 5 0 -1
BITMAP
F0
68
50
60
90
ENDCHAR
STARTCHAR uni1306
ENCODING 4870
SWIDTH 746 0
DWIDTH 4 0
BBX 4 4 0 0
BITMAP
70
50
60
B0
ENDCHAR
STARTCHAR uni1307
ENCODING 4871
SWIDTH 933 0
DWIDTH 6 0
BBX 5 6 0 -1
BITMAP
90
60
60
40
B0
28
ENDCHAR
STARTCHAR uni1308
ENCODING 4872
SWIDTH 459 0
DWIDTH 3 0
BBX 3 4 0 0
BITMAP
40
A0
40
40
ENDCHAR
STARTCHAR uni1309
ENCODING 4873
SWIDTH 700 0
DWIDTH 4 0
BBX 4 3 0 0
BITMAP
E0
50
40
ENDCHAR
STARTCHAR uni130A
ENCODING 4874
SWIDTH 700 0
DWIDTH 4 0
BBX 4 3 0 0
BITMAP
E0
40
70
ENDCHAR
STARTCHAR uni130B
ENCODING 4875
SWIDTH 660 0
DWIDTH 4 0
BBX 4 3 0 0
BITMAP
70
10
E0
ENDCHAR
STARTCHAR uni130C
ENCODING 4876
SWIDTH 592 0
DWIDTH 4 0
BBX 3 4 0 0
BITMAP
40
A0
40
60
ENDCHAR
STARTCHAR uni130D
ENCODING 4877
SWIDTH 620 0
DWIDTH 4 0
BBX 4 4 0 0
BITMAP
20
D0
20
20
ENDCHAR
STARTCHAR uni130E
ENCODING 4878
SWIDTH 505 0
DWIDTH 3 0
BBX 3 4 0 0
BITMAP
40
A0
20
40
ENDCHAR
STARTCHAR uni130F
ENCODING 4879
SWIDTH 550 0
DWIDTH 3 0
BBX 3 5 0 -1
BITMAP
40
A0
20
40
80
ENDCHAR
STARTCHAR uni1310
ENCODING 4880
SWIDTH 839 0
DWIDTH 5 0
BBX 5 4 0 0
BITMAP
60
B8
58
40
ENDCHAR
STARTCHAR uni1312
ENCODING 4882
SWIDTH 886 0
DWIDTH 5 0
BBX 5 4 0 0
BITMAP
40
B0
48
40
ENDCHAR
STARTCHAR uni1313
ENCODING 4883
SWIDTH 553 0
DWIDTH 3 0
BBX 3 4 0 0
BITMAP
E0
20
E0
20
ENDCHAR
STARTCHAR uni1314
ENCODING 4884
SWIDTH 707 0
DWIDTH 4 0
BBX 4 5 0 -1
BITMAP
60
20
30
40
80
ENDCHAR
STARTCHAR uni1315
ENCODING 4885
SWIDTH 773 0
DWIDTH 5 0
BBX 5 4 0 0
BITMAP
40
B0
58
48
ENDCHAR
STARTCHAR uni1318
ENCODING 4888
SWIDTH 632 0
DWIDTH 4 0
BBX 4 5 0 0
BITMAP
10
E0
E0
20
20
ENDCHAR
STARTCHAR uni1319
ENCODING 4889
SWIDTH 765 0
DWIDTH 5 0
BBX 4 4 0 0
BITMAP
F0
60
30
20
ENDCHAR
STARTCHAR uni131A
ENCODING 4890
SWIDTH 779 0
DWIDTH 5 0
BBX 4 4 0 0
BITMAP
F0
60
20
30
ENDCHAR
STARTCHAR uni131B
ENCODING 4891
SWIDTH 696 0
DWIDTH 4 0
BBX 4 4 0 0
BITMAP
F0
70
20
C0
ENDCHAR
STARTCHAR uni131C
ENCODING 4892
SWIDTH 654 0
DWIDTH 4 0
BBX 4 5 0 0
BITMAP
10
E0
E0
20
70
ENDCHAR
STARTCHAR uni131D
ENCODING 4893
SWIDTH 649 0
DWIDTH 4 0
BBX 4 5 0 0
BITMAP
10
E0
F0
20
20
ENDCHAR
STARTCHAR uni131E
ENCODING 4894
SWIDTH 649 0
DWIDTH 4 0
BBX 4 5 0 0
BITMAP
20
F0
A0
20
20
ENDCHAR
STARTCHAR uni131F
ENCODING 4895
SWIDTH 711 0
DWIDTH 4 0
BBX 4 5 0 -1
BITMAP
F0
A0
20
30
C0
ENDCHAR
STARTCHAR uni1320
ENCODING 4896
SWIDTH 812 0
DWIDTH 5 0
BBX 5 3 0 0
BITMAP
70
A8
A8
ENDCHAR
STARTCHAR uni1321
ENCODING 4897
SWIDTH 1025 0
DWIDTH 6 0
BBX 6 3 0 0
BITMAP
70
AC
A8
ENDCHAR
STARTCHAR uni1322
ENCODING 4898
SWIDTH 1060 0
DWIDTH 6 0
BBX 6 3 0 0
BITMAP
70
A8
AC
ENDCHAR
STARTCHAR uni1323
ENCODING 4899
SWIDTH 772 0
DWIDTH 5 0
BBX 4 4 0 0
BITMAP
30
F0
B0
10
ENDCHAR
STARTCHAR uni1324
ENCODING 4900
SWIDTH 945 0
DWIDTH 6 0
BBX 5 3 0 0
BITMAP
70
B0
B8
ENDCHAR
STARTCHAR uni1325
ENCODING 4901
SWIDTH 686 0
DWIDTH 4 0
BBX 4 3 0 0
BITMAP
F0
20
60
ENDCHAR
STARTCHAR uni1326
ENCODING 4902
SWIDTH 759 0
DWIDTH 5 0
BBX 4 3 0 0
BITMAP
F0
B0
80
ENDCHAR
STARTCHAR uni1327
ENCODING 4903
SWIDTH 999 0
DWIDTH 6 0
BBX 6 4 0 -1
BITMAP
70
B8
94
28
ENDCHAR
STARTCHAR uni1328
ENCODING 4904
SWIDTH 1100 0
DWIDTH 7 0
BBX 6 3 0 0
BITMAP
78
A8
FC
ENDCHAR
STARTCHAR uni1329
ENCODING 4905
SWIDTH 1120 0
DWIDTH 7 0
BBX 7 3 0 0
BITMAP
78
AE
FC
ENDCHAR
STARTCHAR uni132A
ENCODING 4906
SWIDTH 1145 0
DWIDTH 7 0
BBX 7 3 0 0
BITMAP
78
A8
FE
ENDCHAR
STARTCHAR uni132B
ENCODING 4907
SWIDTH 1013 0
DWIDTH 6 0
BBX 6 3 0 0
BITMAP
F8
08
0C
ENDCHAR
STARTCHAR uni132C
ENCODING 4908
SWIDTH 1259 0
DWIDTH 8 0
BBX 7 3 0 0
BITMAP
7A
AC
FC
ENDCHAR
STARTCHAR uni132D
ENCODING 4909
SWIDTH 1006 0
DWIDTH 6 0
BBX 6 4 0 0
BITMAP
30
EC
30
30
ENDCHAR
STARTCHAR uni132E
ENCODING 4910
SWIDTH 1112 0
DWIDTH 7 0
BBX 7 4 0 0
BITMAP
28
FE
84
C0
ENDCHAR
STARTCHAR uni132F
ENCODING 4911
SWIDTH 1145 0
DWIDTH 7 0
BBX 7 4 0 -1
BITMAP
F8
F8
FE
10
ENDCHAR
STARTCHAR uni1330
ENCODING 4912
SWIDTH 565 0
DWIDTH 3 0
BBX 3 4 0 0
BITMAP
40
A0
60
A0
ENDCHAR
STARTCHAR uni1331
ENCODING 4913
SWIDTH 798 0
DWIDTH 5 0
BBX 5 4 0 0
BITMAP
40
A0
60
B8
ENDCHAR
STARTCHAR uni1332
ENCODING 4914
SWIDTH 826 0
DWIDTH 5 0
BBX 5 4 0 0
BITMAP
40
A0
60
B8
ENDCHAR
STARTCHAR uni1333
ENCODING 4915
SWIDTH 565 0
DWIDTH 3 0
BBX 3 4 0 0
BITMAP
40
A0
60
A0
ENDCHAR
STARTCHAR uni1334
ENCODING 4916
SWIDTH 752 0
DWIDTH 5 0
BBX 4 4 0 0
BITMAP
40
A0
60
B0
ENDCHAR
STARTCHAR uni1335
ENCODING 4917
SWIDTH 686 0
DWIDTH 4 0
BBX 4 4 0 0
BITMAP
40
B0
60
A0
ENDCHAR
STARTCHAR uni1336
ENCODING 4918
SWIDTH 545 0
DWIDTH 3 0
BBX 3 4 0 0
BITMAP
40
A0
60
80
ENDCHAR
STARTCHAR uni1337
ENCODING 4919
SWIDTH 705 0
DWIDTH 4 0
BBX 4 5 0 -1
BITMAP
40
C0
40
A0
D0
ENDCHAR
STARTCHAR uni1338
ENCODING 4920
SWIDTH 565 0
DWIDTH 3 0
BBX 3 3 0 0
BITMAP
E0
60
A0
ENDCHAR
STARTCHAR uni1339
ENCODING 4921
SWIDTH 786 0
DWIDTH 5 0
BBX 5 3 0 0
BITMAP
E0
70
A8
ENDCHAR
STARTCHAR uni133A
ENCODING 4922
SWIDTH 806 0
DWIDTH 5 0
BBX 5 4 0 0
BITMAP
40
E0
60
B8
ENDCHAR
STARTCHAR uni133B
ENCODING 4923
SWIDTH 525 0
DWIDTH 3 0
BBX 3 4 0 0
BITMAP
40
C0
40
A0
ENDCHAR
STARTCHAR uni133C
ENCODING 4924
SWIDTH 726 0
DWIDTH 4 0
BBX 4 4 0 0
BITMAP
40
E0
60
B0
ENDCHAR
STARTCHAR uni133D
ENCODING 4925
SWIDTH 712 0
DWIDTH 4 0
BBX 4 3 0 0
BITMAP
F0
60
A0
ENDCHAR
STARTCHAR uni133E
ENCODING 4926
SWIDTH 540 0
DWIDTH 3 0
BBX 3 4 0 0
BITMAP
40
E0
60
80
ENDCHAR
STARTCHAR uni133F
ENCODING 4927
SWIDTH 787 0
DWIDTH 5 0
BBX 4 5 0 -1
BITMAP
60
40
A0
20
D0
ENDCHAR
STARTCHAR uni1340
ENCODING 4928
SWIDTH 493 0
DWIDTH 3 0
BBX 3 4 0 0
BITMAP
40
A0
E0
C0
ENDCHAR
STARTCHAR uni1341
ENCODING 4929
SWIDTH 732 0
DWIDTH 4 0
BBX 4 4 0 0
BITMAP
40
A0
F0
C0
ENDCHAR
STARTCHAR uni1342
ENCODING 4930
SWIDTH 612 0
DWIDTH 4 0
BBX 3 4 0 0
BITMAP
40
C0
40
60
ENDCHAR
STARTCHAR uni1343
ENCODING 4931
SWIDTH 433 0
DWIDTH 3 0
BBX 2 4 0 0
BITMAP
40
C0
40
40
ENDCHAR
STARTCHAR uni1344
ENCODING 4932
SWIDTH 545 0
DWIDTH 3 0
BBX 3 4 0 0
BITMAP
40
C0
40
60
ENDCHAR
STARTCHAR uni1345
ENCODING 4933
SWIDTH 493 0
DWIDTH 3 0
BBX 3 4 0 0
BITMAP
40
A0
E0
C0
ENDCHAR
STARTCHAR uni1346
ENCODING 4934
SWIDTH 580 0
DWIDTH 3 0
BBX 3 4 0 0
BITMAP
60
60
40
80
ENDCHAR
STARTCHAR uni1347
ENCODING 4935
SWIDTH 648 0
DWIDTH 4 0
BBX 4 4 0 0
BITMAP
30
D0
60
40
ENDCHAR
STARTCHAR uni1348
ENCODING 4936
SWIDTH 700 0
DWIDTH 4 0
BBX 4 4 0 0
BITMAP
20
40
40
F0
ENDCHAR
STARTCHAR uni1349
ENCODING 4937
SWIDTH 720 0
DWIDTH 4 0
BBX 4 4 0 0
BITMAP
60
E0
D0
40
ENDCHAR
STARTCHAR uni134A
ENCODING 4938
SWIDTH 700 0
DWIDTH 4 0
BBX 4 4 0 0
BITMAP
20
40
40
F0
ENDCHAR
STARTCHAR uni134B
ENCODING 4939
SWIDTH 706 0
DWIDTH 4 0
BBX 4 4 0 0
BITMAP
40
C0
70
40
ENDCHAR
STARTCHAR uni134C
ENCODING 4940
SWIDTH 812 0
DWIDTH 5 0
BBX 5 4 0 0
BITMAP
20
40
40
F8
ENDCHAR
STARTCHAR uni134D
ENCODING 4941
SWIDTH 700 0
DWIDTH 4 0
BBX 4 4 0 0
BITMAP
70
C0
F0
40
ENDCHAR
STARTCHAR uni134E
ENCODING 4942
SWIDTH 726 0
DWIDTH 4 0
BBX 4 4 0 0
BITMAP
30
E0
C0
F0
ENDCHAR
STARTCHAR uni134F
ENCODING 4943
SWIDTH 766 0
DWIDTH 5 0
BBX 4 5 0 -1
BITMAP
20
60
30
20
D0
ENDCHAR
STARTCHAR uni1350
ENCODING 4944
SWIDTH 706 0
DWIDTH 4 0
BBX 4 3 0 0
BITMAP
F0
40
40
ENDCHAR
STARTCHAR uni1351
ENCODING 4945
SWIDTH 706 0
DWIDTH 4 0
BBX 4 3 0 0
BITMAP
F0
50
60
ENDCHAR
STARTCHAR uni1352
ENCODING 4946
SWIDTH 706 0
DWIDTH 4 0
BBX 4 3 0 0
BITMAP
F0
40
70
ENDCHAR
STARTCHAR uni1353
ENCODING 4947
SWIDTH 873 0
DWIDTH 5 0
BBX 5 3 0 0
BITMAP
78
20
C0
ENDCHAR
STARTCHAR uni1354
ENCODING 4948
SWIDTH 706 0
DWIDTH 4 0
BBX 4 3 0 0
BITMAP
F0
40
60
ENDCHAR
STARTCHAR uni1355
ENCODING 4949
SWIDTH 706 0
DWIDTH 4 0
BBX 4 3 0 0
BITMAP
F0
20
20
ENDCHAR
STARTCHAR uni1356
ENCODING 4950
SWIDTH 879 0
DWIDTH 5 0
BBX 5 4 0 0
BITMAP
18
60
40
80
ENDCHAR
STARTCHAR uni1357
ENCODING 4951
SWIDTH 746 0
DWIDTH 4 0
BBX 4 5 0 -1
BITMAP
10
E0
40
40
B0
ENDCHAR
STARTCHAR uni1358
ENCODING 4952
SWIDTH 707 0
DWIDTH 4 0
BBX 4 4 0 0
BITMAP
F0
40
A0
E0
ENDCHAR
STARTCHAR uni1359
ENCODING 4953
SWIDTH 1005 0
DWIDTH 6 0
BBX 6 5 0 0
BITMAP
10
60
F8
D0
1C
ENDCHAR
STARTCHAR uni135A
ENCODING 4954
SWIDTH 686 0
DWIDTH 4 0
BBX 4 4 0 0
BITMAP
F0
C0
C0
F0
ENDCHAR
STARTCHAR uni135D
ENCODING 4957
SWIDTH 0 0
DWIDTH 0 0
BBX 3 2 -3 4
BITMAP
20
C0
ENDCHAR
STARTCHAR uni135E
ENCODING 4958
SWIDTH 0 0
DWIDTH 0 0
BBX 1 1 -2 4
BITMAP
80
ENDCHAR
STARTCHAR uni135F
ENCODING 4959
SWIDTH 0 0
DWIDTH 0 0
BBX 1 1 -3 4
BITMAP
80
ENDCHAR
STARTCHAR uni1360
ENCODING 4960
SWIDTH 686 0
DWIDTH 4 0
BBX 4 4 0 0
BITMAP
D0
B0
60
D0
ENDCHAR
STARTCHAR uni1361
ENCODING 4961
SWIDTH 580 0
DWIDTH 3 0
BBX 1 2 1 1
BITMAP
80
80
ENDCHAR
STARTCHAR uni1362
ENCODING 4962
SWIDTH 571 0
DWIDTH 3 0
BBX 2 2 1 1
BITMAP
C0
C0
ENDCHAR
STARTCHAR uni1363
ENCODING 4963
SWIDTH 592 0
DWIDTH 4 0
BBX 1 3 1 1
BITMAP
80
80
80
ENDCHAR
STARTCHAR uni1364
ENCODING 4964
SWIDTH 592 0
DWIDTH 4 0
BBX 1 4 1 0
BITMAP
80
80
80
80
ENDCHAR
STARTCHAR uni1365
ENCODING 4965
SWIDTH 611 0
DWIDTH 4 0
BBX 2 2 1 1
BITMAP
80
C0
ENDCHAR
STARTCHAR uni1366
ENCODING 4966
SWIDTH 819 0
DWIDTH 5 0
BBX 3 2 1 1
BITMAP
80
E0
ENDCHAR
STARTCHAR uni1367
ENCODING 4967
SWIDTH 560 0
DWIDTH 3 0
BBX 1 4 1 0
BITMAP
80
00
80
80
ENDCHAR
STARTCHAR uni1368
ENCODING 4968
SWIDTH 571 0
DWIDTH 3 0
BBX 3 3 0 0
BITMAP
E0
E0
40
ENDCHAR
STARTCHAR uni1369
ENCODING 4969
SWIDTH 505 0
DWIDTH 3 0
BBX 3 5 0 -1
BITMAP
60
40
A0
A0
E0
ENDCHAR
STARTCHAR uni136A
ENCODING 4970
SWIDTH 465 0
DWIDTH 3 0
BBX 3 5 0 -1
BITMAP
E0
C0
C0
C0
E0
ENDCHAR
STARTCHAR uni136B
ENCODING 4971
SWIDTH 486 0
DWIDTH 3 0
BBX 3 5 0 -1
BITMAP
E0
A0
80
80
C0
ENDCHAR
STARTCHAR uni136C
ENCODING 4972
SWIDTH 399 0
DWIDTH 2 0
BBX 2 5 0 -1
BITMAP
40
C0
C0
C0
C0
ENDCHAR
STARTCHAR uni136D
ENCODING 4973
SWIDTH 585 0
DWIDTH 4 0
BBX 3 5 0 -1
BITMAP
60
C0
60
A0
E0
ENDCHAR
STARTCHAR uni136E
ENCODING 4974
SWIDTH 499 0
DWIDTH 3 0
BBX 3 5 0 -1
BITMAP
E0
C0
40
A0
E0
ENDCHAR
STARTCHAR uni136F
ENCODING 4975
SWIDTH 559 0
DWIDTH 3 0
BBX 3 5 0 -1
BITMAP
60
C0
40
60
E0
ENDCHAR
STARTCHAR uni1370
ENCODING 4976
SWIDTH 652 0
DWIDTH 4 0
BBX 4 5 0 -1
BITMAP
60
D0
40
A0
E0
ENDCHAR
STARTCHAR uni1371
ENCODING 4977
SWIDTH 492 0
DWIDTH 3 0
BBX 3 5 0 -1
BITMAP
E0
A0
E0
C0
E0
ENDCHAR
STARTCHAR uni1372
ENCODING 4978
SWIDTH 445 0
DWIDTH 3 0
BBX 3 5 0 -1
BITMAP
C0
60
40
40
C0
ENDCHAR
STARTCHAR uni1373
ENCODING 4979
SWIDTH 639 0
DWIDTH 4 0
BBX 4 5 0 -1
BITMAP
60
D0
60
A0
60
ENDCHAR
STARTCHAR uni1374
ENCODING 4980
SWIDTH 666 0
DWIDTH 4 0
BBX 4 5 0 -1
BITMAP
20
70
D0
D0
60
ENDCHAR
STARTCHAR uni1375
ENCODING 4981
SWIDTH 632 0
DWIDTH 4 0
BBX 4 5 0 -1
BITMAP
60
D0
E0
20
E0
ENDCHAR
STARTCHAR uni1376
ENCODING 4982
SWIDTH 472 0
DWIDTH 3 0
BBX 3 5 0 -1
BITMAP
E0
A0
C0
40
C0
ENDCHAR
STARTCHAR uni1377
ENCODING 4983
SWIDTH 666 0
DWIDTH 4 0
BBX 4 5 0 -1
BITMAP
60
D0
60
A0
60
ENDCHAR
STARTCHAR uni1378
ENCODING 4984
SWIDTH 671 0
DWIDTH 4 0
BBX 4 5 0 -1
BITMAP
60
70
80
A0
60
ENDCHAR
STARTCHAR uni1379
ENCODING 4985
SWIDTH 852 0
DWIDTH 5 0
BBX 5 5 0 -1
BITMAP
70
78
E0
60
70
ENDCHAR
STARTCHAR uni137A
ENCODING 4986
SWIDTH 479 0
DWIDTH 3 0
BBX 3 5 0 -1
BITMAP
60
C0
20
40
E0
ENDCHAR
STARTCHAR uni137B
ENCODING 4987
SWIDTH 453 0
DWIDTH 3 0
BBX 3 5 0 -1
BITMAP
E0
C0
80
40
C0
ENDCHAR
STARTCHAR uni137C
ENCODING 4988
SWIDTH 687 0
DWIDTH 4 0
BBX 4 5 0 -1
BITMAP
60
F0
A0
E0
60
ENDCHAR
STARTCHAR uni1380
ENCODING 4992
SWIDTH 1212 0
DWIDTH 7 0
BBX 7 2 0 1
BITMAP
7E
F8
ENDCHAR
STARTCHAR uni1381
ENCODING 4993
SWIDTH 1145 0
DWIDTH 7 0
BBX 7 4 0 0
BITMAP
78
DC
12
10
ENDCHAR
STARTCHAR uni1382
ENCODING 4994
SWIDTH 933 0
DWIDTH 6 0
BBX 5 5 0 -1
BITMAP
F8
D8
10
18
20
ENDCHAR
STARTCHAR uni1383
ENCODING 4995
SWIDTH 1180 0
DWIDTH 7 0
BBX 7 4 0 0
BITMAP
7E
DC
40
80
ENDCHAR
STARTCHAR uni1384
ENCODING 4996
SWIDTH 812 0
DWIDTH 5 0
BBX 5 4 0 0
BITMAP
E0
B8
A0
A0
ENDCHAR
STARTCHAR uni1385
ENCODING 4997
SWIDTH 873 0
DWIDTH 5 0
BBX 5 4 0 0
BITMAP
E0
B0
A8
A0
ENDCHAR
STARTCHAR uni1386
ENCODING 4998
SWIDTH 726 0
DWIDTH 4 0
BBX 4 5 0 -1
BITMAP
E0
A0
A0
B0
40
ENDCHAR
STARTCHAR uni1387
ENCODING 4999
SWIDTH 1013 0
DWIDTH 6 0
BBX 6 4 0 0
BITMAP
30
5C
D0
70
ENDCHAR
STARTCHAR uni1388
ENCODING 5000
SWIDTH 746 0
DWIDTH 4 0
BBX 4 4 0 0
BITMAP
20
30
40
F0
ENDCHAR
STARTCHAR uni1389
ENCODING 5001
SWIDTH 819 0
DWIDTH 5 0
BBX 5 4 0 0
BITMAP
30
50
48
F0
ENDCHAR
STARTCHAR uni138A
ENCODING 5002
SWIDTH 821 0
DWIDTH 5 0
BBX 5 4 0 0
BITMAP
60
E0
F8
50
ENDCHAR
STARTCHAR uni138B
ENCODING 5003
SWIDTH 794 0
DWIDTH 5 0
BBX 5 4 0 0
BITMAP
30
C0
F8
70
ENDCHAR
STARTCHAR uni138C
ENCODING 5004
SWIDTH 746 0
DWIDTH 4 0
BBX 4 3 0 0
BITMAP
F0
70
40
ENDCHAR
STARTCHAR uni138D
ENCODING 5005
SWIDTH 778 0
DWIDTH 5 0
BBX 4 4 0 0
BITMAP
10
E0
70
50
ENDCHAR
STARTCHAR uni138E
ENCODING 5006
SWIDTH 746 0
DWIDTH 4 0
BBX 4 5 0 -1
BITMAP
F0
20
50
60
80
ENDCHAR
STARTCHAR uni138F
ENCODING 5007
SWIDTH 830 0
DWIDTH 5 0
BBX 5 3 0 0
BITMAP
F0
38
20
ENDCHAR
STARTCHAR uni1390
ENCODING 5008
SWIDTH 224 0
DWIDTH 1 0
BBX 1 1 0 0
BITMAP
80
ENDCHAR
STARTCHAR uni1391
ENCODING 5009
SWIDTH 517 0
DWIDTH 3 0
BBX 3 1 0 0
BITMAP
E0
ENDCHAR
STARTCHAR uni1392
ENCODING 5010
SWIDTH 231 0
DWIDTH 1 0
BBX 1 4 0 0
BITMAP
80
00
80
80
ENDCHAR
STARTCHAR uni1393
ENCODING 5011
SWIDTH 239 0
DWIDTH 1 0
BBX 1 3 0 0
BITMAP
80
00
80
ENDCHAR
STARTCHAR uni1394
ENCODING 5012
SWIDTH 517 0
DWIDTH 3 0
BBX 3 1 0 0
BITMAP
E0
ENDCHAR
STARTCHAR uni1395
ENCODING 5013
SWIDTH 987 0
DWIDTH 6 0
BBX 6 2 0 0
BITMAP
04
F8
ENDCHAR
STARTCHAR uni1396
ENCODING 5014
SWIDTH 347 0
DWIDTH 2 0
BBX 2 2 0 0
BITMAP
40
80
ENDCHAR
STARTCHAR uni1397
ENCODING 5015
SWIDTH 985 0
DWIDTH 6 0
BBX 6 1 0 0
BITMAP
FC
ENDCHAR
STARTCHAR uni1398
ENCODING 5016
SWIDTH 1019 0
DWIDTH 6 0
BBX 6 1 0 0
BITMAP
FC
ENDCHAR
STARTCHAR uni1399
ENCODING 5017
SWIDTH 473 0
DWIDTH 3 0
BBX 3 4 0 0
BITMAP
80
80
E0
80
ENDCHAR
STARTCHAR uni2000
ENCODING 8192
SWIDTH 480 0
DWIDTH 3 0
BBX 1 1 0 0
BITMAP
00
ENDCHAR
STARTCHAR uni2001
ENCODING 8193
SWIDTH 962 0
DWIDTH 6 0
BBX 1 1 0 0
BITMAP
00
ENDCHAR
STARTCHAR uni2002
ENCODING 8194
SWIDTH 500 0
DWIDTH 3 0
BBX 1 1 0 0
BITMAP
00
ENDCHAR
STARTCHAR uni2003
ENCODING 8195
SWIDTH 1000 0
DWIDTH 6 0
BBX 1 1 0 0
BITMAP
00
ENDCHAR
STARTCHAR uni2004
ENCODING 8196
SWIDTH 320 0
DWIDTH 2 0
BBX 1 1 0 0
BITMAP
00
ENDCHAR
STARTCHAR uni2005
ENCODING 8197
SWIDTH 240 0
DWIDTH 1 0
BBX 1 1 0 0
BITMAP
00
ENDCHAR
STARTCHAR uni2006
ENCODING 8198
SWIDTH 160 0
DWIDTH 1 0
BBX 1 1 0 0
BITMAP
00
ENDCHAR
STARTCHAR uni2007
ENCODING 8199
SWIDTH 540 0
DWIDTH 3 0
BBX 1 1 0 0
BITMAP
00
ENDCHAR
STARTCHAR uni2008
ENCODING 8200
SWIDTH 20 0
DWIDTH 0 0
BBX 1 1 0 0
BITMAP
00
ENDCHAR
STARTCHAR uni2009
ENCODING 8201
SWIDTH 318 0
DWIDTH 2 0
BBX 1 1 0 0
BITMAP
00
ENDCHAR
STARTCHAR uni200A
ENCODING 8202
SWIDTH 0 0
DWIDTH 0 0
BBX 1 1 0 0
BITMAP
00
ENDCHAR
STARTCHAR uni200B
ENCODING 8203
SWIDTH 0 0
DWIDTH 0 0
BBX 1 1 0 0
BITMAP
00
ENDCHAR
STARTCHAR uni200C
ENCODING 8204
SWIDTH 0 0
DWIDTH 0 0
BBX 1 1 0 0
BITMAP
00
ENDCHAR
STARTCHAR uni200D
ENCODING 8205
SWIDTH 0 0
DWIDTH 0 0
BBX 1 1 0 0
BITMAP
00
ENDCHAR
STARTCHAR uni200E
ENCODING 8206
SWIDTH 0 0
DWIDTH 0 0
BBX 1 1 0 0
BITMAP
00
ENDCHAR
STARTCHAR uni200F
ENCODING 8207
SWIDTH 0 0
DWIDTH 0 0
BBX 1 1 0 0
BITMAP
00
ENDCHAR
STARTCHAR uni2010
ENCODING 8208
SWIDTH 319 0
DWIDTH 2 0
BBX 2 1 0 1
BITMAP
C0
ENDCHAR
STARTCHAR uni2011
ENCODING 8209
SWIDTH 319 0
DWIDTH 2 0
BBX 2 1 0 1
BITMAP
C0
ENDCHAR
STARTCHAR figuredash
ENCODING 8210
SWIDTH 562 0
DWIDTH 3 0
BBX 3 1 0 1
BITMAP
E0
ENDCHAR
STARTCHAR endash
ENCODING 8211
SWIDTH 605 0
DWIDTH 4 0
BBX 3 1 0 1
BITMAP
E0
ENDCHAR
STARTCHAR emdash
ENCODING 8212
SWIDTH 1000 0
DWIDTH 6 0
BBX 6 1 0 1
BITMAP
FC
ENDCHAR
STARTCHAR uni2015
ENCODING 8213
SWIDTH 971 0
DWIDTH 6 0
BBX 6 1 0 1
BITMAP
FC
ENDCHAR
STARTCHAR quoteleft
ENCODING 8216
SWIDTH 353 0
DWIDTH 2 0
BBX 2 2 0 2
BITMAP
40
C0
ENDCHAR
STARTCHAR quoteright
ENCODING 8217
SWIDTH 353 0
DWIDTH 2 0
BBX 2 2 0 2
BITMAP
40
C0
ENDCHAR
STARTCHAR quotesinglbase
ENCODING 8218
SWIDTH 247 0
DWIDTH 1 0
BBX 1 2 0 -1
BITMAP
80
80
ENDCHAR
STARTCHAR quotedblleft
ENCODING 8220
SWIDTH 652 0
DWIDTH 4 0
BBX 4 2 0 2
BITMAP
50
E0
ENDCHAR
STARTCHAR quotedblright
ENCODING 8221
SWIDTH 652 0
DWIDTH 4 0
BBX 4 2 0 2
BITMAP
60
F0
ENDCHAR
STARTCHAR quotedblbase
ENCODING 8222
SWIDTH 453 0
DWIDTH 3 0
BBX 2 2 0 -1
BITMAP
C0
C0
ENDCHAR
STARTCHAR dagger
ENCODING 8224
SWIDTH 520 0
DWIDTH 3 0
BBX 3 5 0 -1
BITMAP
40
E0
40
40
40
ENDCHAR
STARTCHAR daggerdbl
ENCODING 8225
SWIDTH 520 0
DWIDTH 3 0
BBX 3 5 0 -1
BITMAP
40
E0
40
E0
40
ENDCHAR
STARTCHAR bullet
ENCODING 8226
SWIDTH 372 0
DWIDTH 2 0
BBX 2 2 0 1
BITMAP
C0
40
ENDCHAR
STARTCHAR ellipsis
ENCODING 8230
SWIDTH 1000 0
DWIDTH 6 0
BBX 4 1 1 0
BITMAP
D0
ENDCHAR
STARTCHAR uni2027
ENCODING 8231
SWIDTH 187 0
DWIDTH 1 0
BBX 1 1 0 1
BITMAP
80
ENDCHAR
STARTCHAR uni2028
ENCODING 8232
SWIDTH 0 0
DWIDTH 0 0
BBX 1 1 0 0
BITMAP
00
ENDCHAR
STARTCHAR uni2029
ENCODING 8233
SWIDTH 0 0
DWIDTH 0 0
BBX 1 1 0 0
BITMAP
00
ENDCHAR
STARTCHAR uni202A
ENCODING 8234
SWIDTH 0 0
DWIDTH 0 0
BBX 1 1 0 0
BITMAP
00
ENDCHAR
STARTCHAR uni202B
ENCODING 8235
SWIDTH 0 0
DWIDTH 0 0
BBX 1 1 0 0
BITMAP
00
ENDCHAR
STARTCHAR uni202C
ENCODING 8236
SWIDTH 0 0
DWIDTH 0 0
BBX 1 1 0 0
BITMAP
00
ENDCHAR
STARTCHAR uni202D
ENCODING 8237
SWIDTH 0 0
DWIDTH 0 0
BBX 1 1 0 0
BITMAP
00
ENDCHAR
STARTCHAR uni202E
ENCODING 8238
SWIDTH 0 0
DWIDTH 0 0
BBX 1 1 0 0
BITMAP
00
ENDCHAR
STARTCHAR uni202F
ENCODING 8239
SWIDTH 240 0
DWIDTH 1 0
BBX 1 1 0 0
BITMAP
00
ENDCHAR
STARTCHAR perthousand
ENCODING 8240
SWIDTH 1134 0
DWIDTH 7 0
BBX 7 4 0 0
BITMAP
F0
A0
7E
7E
ENDCHAR
STARTCHAR guilsinglleft
ENCODING 8249
SWIDTH 399 0
DWIDTH 2 0
BBX 1 2 1 1
BITMAP
80
80
ENDCHAR
STARTCHAR guilsinglright
ENCODING 8250
SWIDTH 399 0
DWIDTH 2 0
BBX 2 2 0 1
BITMAP
C0
80
ENDCHAR
STARTCHAR uni203B
ENCODING 8251
SWIDTH 686 0
DWIDTH 4 0
BBX 4 4 0 0
BITMAP
D0
B0
60
D0
ENDCHAR
STARTCHAR fraction
ENCODING 8260
SWIDTH 490 0
DWIDTH 3 0
BBX 3 5 0 -1
BITMAP
20
40
40
80
80
ENDCHAR
STARTCHAR uni2060
ENCODING 8288
SWIDTH 0 0
DWIDTH 0 0
BBX 1 1 0 0
BITMAP
00
ENDCHAR
STARTCHAR zerosuperior
ENCODING 8304
SWIDTH 404 0
DWIDTH 2 0
BBX 2 2 0 2
BITMAP
C0
C0
ENDCHAR
STARTCHAR foursuperior
ENCODING 8308
SWIDTH 404 0
DWIDTH 2 0
BBX 2 2 0 2
BITMAP
40
C0
ENDCHAR
STARTCHAR fivesuperior
ENCODING 8309
SWIDTH 404 0
DWIDTH 2 0
BBX 2 2 0 2
BITMAP
C0
C0
ENDCHAR
STARTCHAR sixsuperior
ENCODING 8310
SWIDTH 404 0
DWIDTH 2 0
BBX 2 2 0 2
BITMAP
C0
C0
ENDCHAR
STARTCHAR sevensuperior
ENCODING 8311
SWIDTH 404 0
DWIDTH 2 0
BBX 2 2 0 2
BITMAP
C0
80
ENDCHAR
STARTCHAR eightsuperior
ENCODING 8312
SWIDTH 404 0
DWIDTH 2 0
BBX 2 2 0 2
BITMAP
C0
C0
ENDCHAR
STARTCHAR ninesuperior
ENCODING 8313
SWIDTH 404 0
DWIDTH 2 0
BBX 2 2 0 2
BITMAP
C0
C0
ENDCHAR
STARTCHAR Euro
ENCODING 8364
SWIDTH 502 0
DWIDTH 3 0
BBX 3 4 0 0
BITMAP
60
80
C0
60
ENDCHAR
STARTCHAR uni2122
ENCODING 8482
SWIDTH 666 0
DWIDTH 4 0
BBX 4 2 0 2
BITMAP
F0
D0
ENDCHAR
STARTCHAR Omega
ENCODING 8486
SWIDTH 764 0
DWIDTH 5 0
BBX 4 4 0 0
BITMAP
F0
90
90
D0
ENDCHAR
STARTCHAR partialdiff
ENCODING 8706
SWIDTH 516 0
DWIDTH 3 0
BBX 3 4 0 0
BITMAP
60
60
A0
C0
ENDCHAR
STARTCHAR emptyset
ENCODING 8709
SWIDTH 1000 0
DWIDTH 6 0
BBX 4 5 1 0
BITMAP
50
B0
D0
D0
F0
ENDCHAR
STARTCHAR Delta
ENCODING 8710
SWIDTH 639 0
DWIDTH 4 0
BBX 4 4 0 0
BITMAP
40
A0
A0
F0
ENDCHAR
STARTCHAR product
ENCODING 8719
SWIDTH 745 0
DWIDTH 4 0
BBX 4 4 0 0
BITMAP
F0
90
90
D0
ENDCHAR
STARTCHAR summation
ENCODING 8721
SWIDTH 613 0
DWIDTH 4 0
BBX 4 4 0 0
BITMAP
E0
50
60
F0
ENDCHAR
STARTCHAR minus
ENCODING 8722
SWIDTH 1000 0
DWIDTH 6 0
BBX 4 1 1 1
BITMAP
F0
ENDCHAR
STARTCHAR uni2219
ENCODING 8729
SWIDTH 187 0
DWIDTH 1 0
BBX 1 1 0 1
BITMAP
80
ENDCHAR
STARTCHAR radical
ENCODING 8730
SWIDTH 575 0
DWIDTH 3 0
BBX 3 4 0 0
BITMAP
20
A0
40
40
ENDCHAR
STARTCHAR infinity
ENCODING 8734
SWIDTH 1000 0
DWIDTH 6 0
BBX 4 2 1 1
BITMAP
90
F0
ENDCHAR
STARTCHAR integral
ENCODING 8747
SWIDTH 471 0
DWIDTH 3 0
BBX 3 5 0 -1
BITMAP
60
40
40
40
80
ENDCHAR
STARTCHAR approxequal
ENCODING 8776
SWIDTH 1000 0
DWIDTH 6 0
BBX 4 2 1 1
BITMAP
D0
F0
ENDCHAR
STARTCHAR notequal
ENCODING 8800
SWIDTH 1000 0
DWIDTH 6 0
BBX 4 3 1 0
BITMAP
F0
40
B0
ENDCHAR
STARTCHAR lessequal
ENCODING 8804
SWIDTH 1000 0
DWIDTH 6 0
BBX 4 3 1 0
BITMAP
70
C0
F0
ENDCHAR
STARTCHAR greaterequal
ENCODING 8805
SWIDTH 1000 0
DWIDTH 6 0
BBX 4 3 1 0
BITMAP
E0
30
F0
ENDCHAR
STARTCHAR uni25CC
ENCODING 9676
SWIDTH 799 0
DWIDTH 5 0
BBX 3 4 1 0
BITMAP
80
E0
00
E0
ENDCHAR
STARTCHAR uni2713
ENCODING 10003
SWIDTH 942 0
DWIDTH 6 0
BBX 5 4 0 0
BITMAP
08
10
A0
40
ENDCHAR
STARTCHAR uni2D80
ENCODING 11648
SWIDTH 1055 0
DWIDTH 6 0
BBX 6 4 0 0
BITMAP
20
3C
50
D0
ENDCHAR
STARTCHAR uni2D81
ENCODING 11649
SWIDTH 862 0
DWIDTH 5 0
BBX 5 4 0 0
BITMAP
78
B8
40
C0
ENDCHAR
STARTCHAR uni2D82
ENCODING 11650
SWIDTH 881 0
DWIDTH 5 0
BBX 5 4 0 0
BITMAP
18
38
C0
70
ENDCHAR
STARTCHAR uni2D83
ENCODING 11651
SWIDTH 766 0
DWIDTH 5 0
BBX 4 4 0 0
BITMAP
20
50
D0
40
ENDCHAR
STARTCHAR uni2D84
ENCODING 11652
SWIDTH 840 0
DWIDTH 5 0
BBX 5 5 0 0
BITMAP
08
70
50
D0
60
ENDCHAR
STARTCHAR uni2D85
ENCODING 11653
SWIDTH 734 0
DWIDTH 4 0
BBX 4 4 0 0
BITMAP
30
50
D0
60
ENDCHAR
STARTCHAR uni2D86
ENCODING 11654
SWIDTH 707 0
DWIDTH 4 0
BBX 4 5 0 -1
BITMAP
60
20
D0
40
A0
ENDCHAR
STARTCHAR uni2D87
ENCODING 11655
SWIDTH 726 0
DWIDTH 4 0
BBX 4 6 0 -1
BITMAP
10
60
20
D0
40
A0
ENDCHAR
STARTCHAR uni2D88
ENCODING 11656
SWIDTH 660 0
DWIDTH 4 0
BBX 4 5 0 -1
BITMAP
F0
80
60
40
A0
ENDCHAR
STARTCHAR uni2D89
ENCODING 11657
SWIDTH 712 0
DWIDTH 4 0
BBX 4 6 0 -1
BITMAP
10
E0
B0
60
40
A0
ENDCHAR
STARTCHAR uni2D8A
ENCODING 11658
SWIDTH 779 0
DWIDTH 5 0
BBX 4 4 0 0
BITMAP
20
30
30
D0
ENDCHAR
STARTCHAR uni2D8B
ENCODING 11659
SWIDTH 678 0
DWIDTH 4 0
BBX 4 4 0 0
BITMAP
10
50
F0
40
ENDCHAR
STARTCHAR uni2D8C
ENCODING 11660
SWIDTH 823 0
DWIDTH 5 0
BBX 5 4 0 0
BITMAP
30
60
F8
40
ENDCHAR
STARTCHAR uni2D8D
ENCODING 11661
SWIDTH 833 0
DWIDTH 5 0
BBX 5 5 0 0
BITMAP
20
50
60
D8
40
ENDCHAR
STARTCHAR uni2D8E
ENCODING 11662
SWIDTH 770 0
DWIDTH 5 0
BBX 5 4 0 0
BITMAP
78
50
E0
B0
ENDCHAR
STARTCHAR uni2D8F
ENCODING 11663
SWIDTH 957 0
DWIDTH 6 0
BBX 6 3 0 0
BITMAP
38
58
C4
ENDCHAR
STARTCHAR uni2D90
ENCODING 11664
SWIDTH 1312 0
DWIDTH 8 0
BBX 8 4 0 0
BITMAP
1C
2F
40
E0
ENDCHAR
STARTCHAR uni2D91
ENCODING 11665
SWIDTH 712 0
DWIDTH 4 0
BBX 4 4 0 0
BITMAP
20
D0
30
40
ENDCHAR
STARTCHAR uni2D92
ENCODING 11666
SWIDTH 1070 0
DWIDTH 6 0
BBX 6 4 0 0
BITMAP
0C
38
10
E0
ENDCHAR
STARTCHAR uni2D93
ENCODING 11667
SWIDTH 931 0
DWIDTH 6 0
BBX 5 4 0 0
BITMAP
F0
A8
38
20
ENDCHAR
STARTCHAR uni2D94
ENCODING 11668
SWIDTH 985 0
DWIDTH 6 0
BBX 6 4 0 0
BITMAP
F0
B0
2C
20
ENDCHAR
STARTCHAR uni2D95
ENCODING 11669
SWIDTH 755 0
DWIDTH 5 0
BBX 4 5 0 -1
BITMAP
F0
60
30
40
80
ENDCHAR
STARTCHAR uni2D96
ENCODING 11670
SWIDTH 872 0
DWIDTH 5 0
BBX 5 4 0 0
BITMAP
F0
B0
28
20
ENDCHAR
STARTCHAR uni2DA0
ENCODING 11680
SWIDTH 817 0
DWIDTH 5 0
BBX 5 5 0 0
BITMAP
08
70
50
D0
50
ENDCHAR
STARTCHAR uni2DA1
ENCODING 11681
SWIDTH 918 0
DWIDTH 6 0
BBX 5 5 0 0
BITMAP
08
70
50
D8
50
ENDCHAR
STARTCHAR uni2DA2
ENCODING 11682
SWIDTH 926 0
DWIDTH 6 0
BBX 5 5 0 0
BITMAP
08
70
50
D0
58
ENDCHAR
STARTCHAR uni2DA3
ENCODING 11683
SWIDTH 846 0
DWIDTH 5 0
BBX 5 5 0 0
BITMAP
08
70
50
D0
10
ENDCHAR
STARTCHAR uni2DA4
ENCODING 11684
SWIDTH 873 0
DWIDTH 5 0
BBX 5 5 0 0
BITMAP
08
70
50
D0
58
ENDCHAR
STARTCHAR uni2DA5
ENCODING 11685
SWIDTH 705 0
DWIDTH 4 0
BBX 4 5 0 0
BITMAP
10
E0
50
D0
50
ENDCHAR
STARTCHAR uni2DA6
ENCODING 11686
SWIDTH 826 0
DWIDTH 5 0
BBX 5 5 0 0
BITMAP
08
70
50
D0
40
ENDCHAR
STARTCHAR uni2DA8
ENCODING 11688
SWIDTH 746 0
DWIDTH 4 0
BBX 4 4 0 0
BITMAP
70
70
A0
E0
ENDCHAR
STARTCHAR uni2DA9
ENCODING 11689
SWIDTH 746 0
DWIDTH 4 0
BBX 4 4 0 0
BITMAP
70
70
A0
F0
ENDCHAR
STARTCHAR uni2DAA
ENCODING 11690
SWIDTH 758 0
DWIDTH 5 0
BBX 4 4 0 0
BITMAP
70
70
20
F0
ENDCHAR
STARTCHAR uni2DAB
ENCODING 11691
SWIDTH 766 0
DWIDTH 5 0
BBX 4 5 0 -1
BITMAP
70
60
30
C0
80
ENDCHAR
STARTCHAR uni2DAC
ENCODING 11692
SWIDTH 758 0
DWIDTH 5 0
BBX 4 4 0 0
BITMAP
70
70
20
F0
ENDCHAR
STARTCHAR uni2DAD
ENCODING 11693
SWIDTH 786 0
DWIDTH 5 0
BBX 5 5 0 0
BITMAP
10
E0
70
68
A0
ENDCHAR
STARTCHAR uni2DAE
ENCODING 11694
SWIDTH 758 0
DWIDTH 5 0
BBX 4 5 0 0
BITMAP
10
60
30
F0
E0
ENDCHAR
STARTCHAR uni2DB0
ENCODING 11696
SWIDTH 946 0
DWIDTH 6 0
BBX 6 4 0 0
BITMAP
08
F4
D0
50
ENDCHAR
STARTCHAR uni2DB1
ENCODING 11697
SWIDTH 946 0
DWIDTH 6 0
BBX 6 4 0 0
BITMAP
08
F4
D8
50
ENDCHAR
STARTCHAR uni2DB2
ENCODING 11698
SWIDTH 932 0
DWIDTH 6 0
BBX 6 4 0 0
BITMAP
08
F4
D0
58
ENDCHAR
STARTCHAR uni2DB3
ENCODING 11699
SWIDTH 932 0
DWIDTH 6 0
BBX 6 4 0 0
BITMAP
08
F4
D0
30
ENDCHAR
STARTCHAR uni2DB4
ENCODING 11700
SWIDTH 932 0
DWIDTH 6 0
BBX 6 4 0 0
BITMAP
08
F4
D0
58
ENDCHAR
STARTCHAR uni2DB5
ENCODING 11701
SWIDTH 932 0
DWIDTH 6 0
BBX 6 5 0 0
BITMAP
A0
40
BC
D0
50
ENDCHAR
STARTCHAR uni2DB6
ENCODING 11702
SWIDTH 932 0
DWIDTH 6 0
BBX 6 4 0 0
BITMAP
08
F4
D0
40
ENDCHAR
STARTCHAR uni2DB8
ENCODING 11704
SWIDTH 1294 0
DWIDTH 8 0
BBX 8 3 0 0
BITMAP
3C
52
FF
ENDCHAR
STARTCHAR uni2DB9
ENCODING 11705
SWIDTH 1326 0
DWIDTH 8 0
BBX 8 3 0 0
BITMAP
3C
53
FF
ENDCHAR
STARTCHAR uni2DBA
ENCODING 11706
SWIDTH 1332 0
DWIDTH 8 0
BBX 8 3 0 0
BITMAP
3C
54
FF
ENDCHAR
STARTCHAR uni2DBB
ENCODING 11707
SWIDTH 1219 0
DWIDTH 7 0
BBX 7 3 0 0
BITMAP
3E
C4
06
ENDCHAR
STARTCHAR uni2DBC
ENCODING 11708
SWIDTH 1444 0
DWIDTH 9 0
BBX 9 3 0 0
BITMAP
3D00
5680
FF00
ENDCHAR
STARTCHAR uni2DBD
ENCODING 11709
SWIDTH 1206 0
DWIDTH 7 0
BBX 7 4 0 0
BITMAP
1C
76
98
18
ENDCHAR
STARTCHAR uni2DBE
ENCODING 11710
SWIDTH 1312 0
DWIDTH 8 0
BBX 8 4 0 0
BITMAP
1C
2F
40
E0
ENDCHAR
STARTCHAR uni2DC0
ENCODING 11712
SWIDTH 686 0
DWIDTH 4 0
BBX 4 5 0 0
BITMAP
70
20
F0
40
60
ENDCHAR
STARTCHAR uni2DC1
ENCODING 11713
SWIDTH 672 0
DWIDTH 4 0
BBX 4 5 0 0
BITMAP
70
20
F0
C0
70
ENDCHAR
STARTCHAR uni2DC2
ENCODING 11714
SWIDTH 686 0
DWIDTH 4 0
BBX 4 5 0 0
BITMAP
70
20
F0
40
70
ENDCHAR
STARTCHAR uni2DC3
ENCODING 11715
SWIDTH 792 0
DWIDTH 5 0
BBX 5 5 0 0
BITMAP
50
20
78
30
C0
ENDCHAR
STARTCHAR uni2DC4
ENCODING 11716
SWIDTH 672 0
DWIDTH 4 0
BBX 4 5 0 0
BITMAP
70
20
F0
C0
70
ENDCHAR
STARTCHAR uni2DC5
ENCODING 11717
SWIDTH 692 0
DWIDTH 4 0
BBX 4 5 0 0
BITMAP
E0
40
30
F0
60
ENDCHAR
STARTCHAR uni2DC6
ENCODING 11718
SWIDTH 660 0
DWIDTH 4 0
BBX 4 5 0 0
BITMAP
50
60
60
D0
60
ENDCHAR
STARTCHAR uni2DC8
ENCODING 11720
SWIDTH 660 0
DWIDTH 4 0
BBX 4 4 0 0
BITMAP
F0
A0
A0
A0
ENDCHAR
STARTCHAR uni2DC9
ENCODING 11721
SWIDTH 759 0
DWIDTH 5 0
BBX 4 4 0 0
BITMAP
F0
A0
B0
A0
ENDCHAR
STARTCHAR uni2DCA
ENCODING 11722
SWIDTH 792 0
DWIDTH 5 0
BBX 5 4 0 0
BITMAP
F0
A0
A0
B8
ENDCHAR
STARTCHAR uni2DCB
ENCODING 11723
SWIDTH 660 0
DWIDTH 4 0
BBX 4 4 0 0
BITMAP
F0
A0
A0
20
ENDCHAR
STARTCHAR uni2DCC
ENCODING 11724
SWIDTH 766 0
DWIDTH 5 0
BBX 4 4 0 0
BITMAP
F0
A0
A0
B0
ENDCHAR
STARTCHAR uni2DCD
ENCODING 11725
SWIDTH 687 0
DWIDTH 4 0
BBX 4 4 0 0
BITMAP
B0
60
A0
A0
ENDCHAR
STARTCHAR uni2DCE
ENCODING 11726
SWIDTH 645 0
DWIDTH 4 0
BBX 4 4 0 0
BITMAP
F0
A0
A0
80
ENDCHAR
STARTCHAR uni2DD0
ENCODING 11728
SWIDTH 720 0
DWIDTH 4 0
BBX 4 5 0 0
BITMAP
B0
C0
30
50
70
ENDCHAR
STARTCHAR uni2DD1
ENCODING 11729
SWIDTH 945 0
DWIDTH 6 0
BBX 6 5 0 0
BITMAP
B0
C0
30
5C
70
ENDCHAR
STARTCHAR uni2DD2
ENCODING 11730
SWIDTH 945 0
DWIDTH 6 0
BBX 5 5 0 0
BITMAP
B0
C0
30
50
78
ENDCHAR
STARTCHAR uni2DD3
ENCODING 11731
SWIDTH 720 0
DWIDTH 4 0
BBX 4 5 0 0
BITMAP
B0
C0
30
50
30
ENDCHAR
STARTCHAR uni2DD4
ENCODING 11732
SWIDTH 898 0
DWIDTH 5 0
BBX 5 5 0 0
BITMAP
B0
C0
30
50
78
ENDCHAR
STARTCHAR uni2DD5
ENCODING 11733
SWIDTH 792 0
DWIDTH 5 0
BBX 5 5 0 0
BITMAP
60
D0
30
38
70
ENDCHAR
STARTCHAR uni2DD6
ENCODING 11734
SWIDTH 726 0
DWIDTH 4 0
BBX 4 5 0 0
BITMAP
B0
C0
30
50
60
ENDCHAR
STARTCHAR uni2DD8
ENCODING 11736
SWIDTH 486 0
DWIDTH 3 0
BBX 3 4 0 0
BITMAP
E0
A0
40
40
ENDCHAR
STARTCHAR uni2DD9
ENCODING 11737
SWIDTH 707 0
DWIDTH 4 0
BBX 4 4 0 0
BITMAP
E0
A0
50
40
ENDCHAR
STARTCHAR uni2DDA
ENCODING 11738
SWIDTH 731 0
DWIDTH 4 0
BBX 4 4 0 0
BITMAP
E0
A0
20
70
ENDCHAR
STARTCHAR uni2DDB
ENCODING 11739
SWIDTH 660 0
DWIDTH 4 0
BBX 4 4 0 0
BITMAP
70
50
10
E0
ENDCHAR
STARTCHAR uni2DDC
ENCODING 11740
SWIDTH 600 0
DWIDTH 4 0
BBX 3 5 0 0
BITMAP
20
C0
A0
40
60
ENDCHAR
STARTCHAR uni2DDD
ENCODING 11741
SWIDTH 632 0
DWIDTH 4 0
BBX 4 5 0 0
BITMAP
10
60
D0
20
20
ENDCHAR
STARTCHAR uni2DDE
ENCODING 11742
SWIDTH 505 0
DWIDTH 3 0
BBX 3 5 0 0
BITMAP
A0
40
A0
20
40
ENDCHAR
STARTCHAR uniAB01
ENCODING 43777
SWIDTH 752 0
DWIDTH 5 0
BBX 4 4 0 0
BITMAP
40
A0
F0
A0
ENDCHAR
STARTCHAR uniAB02
ENCODING 43778
SWIDTH 786 0
DWIDTH 5 0
BBX 4 4 0 0
BITMAP
40
A0
E0
B0
ENDCHAR
STARTCHAR uniAB03
ENCODING 43779
SWIDTH 553 0
DWIDTH 3 0
BBX 3 4 0 0
BITMAP
40
A0
E0
20
ENDCHAR
STARTCHAR uniAB04
ENCODING 43780
SWIDTH 700 0
DWIDTH 4 0
BBX 4 4 0 0
BITMAP
40
A0
E0
B0
ENDCHAR
STARTCHAR uniAB05
ENCODING 43781
SWIDTH 553 0
DWIDTH 3 0
BBX 3 4 0 0
BITMAP
40
A0
E0
A0
ENDCHAR
STARTCHAR uniAB06
ENCODING 43782
SWIDTH 565 0
DWIDTH 3 0
BBX 3 4 0 0
BITMAP
40
A0
E0
80
ENDCHAR
STARTCHAR uniAB09
ENCODING 43785
SWIDTH 853 0
DWIDTH 5 0
BBX 5 5 0 0
BITMAP
20
60
60
B0
38
ENDCHAR
STARTCHAR uniAB0A
ENCODING 43786
SWIDTH 779 0
DWIDTH 5 0
BBX 4 5 0 0
BITMAP
20
60
60
B0
30
ENDCHAR
STARTCHAR uniAB0B
ENCODING 43787
SWIDTH 600 0
DWIDTH 4 0
BBX 3 5 0 0
BITMAP
20
60
60
A0
20
ENDCHAR
STARTCHAR uniAB0C
ENCODING 43788
SWIDTH 867 0
DWIDTH 5 0
BBX 5 5 0 0
BITMAP
20
60
60
40
B8
ENDCHAR
STARTCHAR uniAB0D
ENCODING 43789
SWIDTH 807 0
DWIDTH 5 0
BBX 5 5 0 0
BITMAP
20
60
78
40
B0
ENDCHAR
STARTCHAR uniAB0E
ENCODING 43790
SWIDTH 740 0
DWIDTH 4 0
BBX 4 5 0 0
BITMAP
40
60
60
50
80
ENDCHAR
STARTCHAR uniAB11
ENCODING 43793
SWIDTH 784 0
DWIDTH 5 0
BBX 5 5 0 0
BITMAP
A0
60
70
A8
A0
ENDCHAR
STARTCHAR uniAB12
ENCODING 43794
SWIDTH 751 0
DWIDTH 5 0
BBX 4 5 0 0
BITMAP
A0
60
60
A0
B0
ENDCHAR
STARTCHAR uniAB13
ENCODING 43795
SWIDTH 561 0
DWIDTH 3 0
BBX 3 5 0 0
BITMAP
20
E0
E0
E0
20
ENDCHAR
STARTCHAR uniAB14
ENCODING 43796
SWIDTH 701 0
DWIDTH 4 0
BBX 4 5 0 0
BITMAP
A0
60
E0
E0
B0
ENDCHAR
STARTCHAR uniAB15
ENCODING 43797
SWIDTH 646 0
DWIDTH 4 0
BBX 4 5 0 0
BITMAP
90
70
F0
60
60
ENDCHAR
STARTCHAR uniAB16
ENCODING 43798
SWIDTH 564 0
DWIDTH 3 0
BBX 3 5 0 0
BITMAP
A0
60
60
A0
80
ENDCHAR
STARTCHAR uniAB20
ENCODING 43808
SWIDTH 1100 0
DWIDTH 7 0
BBX 6 4 0 0
BITMAP
78
78
A8
FC
ENDCHAR
STARTCHAR uniAB21
ENCODING 43809
SWIDTH 1120 0
DWIDTH 7 0
BBX 7 4 0 0
BITMAP
78
78
AE
FC
ENDCHAR
STARTCHAR uniAB22
ENCODING 43810
SWIDTH 1145 0
DWIDTH 7 0
BBX 7 4 0 0
BITMAP
78
78
A8
FE
ENDCHAR
STARTCHAR uniAB23
ENCODING 43811
SWIDTH 1013 0
DWIDTH 6 0
BBX 6 5 0 0
BITMAP
48
30
F8
08
0C
ENDCHAR
STARTCHAR uniAB24
ENCODING 43812
SWIDTH 1259 0
DWIDTH 8 0
BBX 7 4 0 0
BITMAP
78
7A
AC
FC
ENDCHAR
STARTCHAR uniAB25
ENCODING 43813
SWIDTH 1006 0
DWIDTH 6 0
BBX 6 5 0 0
BITMAP
58
38
EC
30
30
ENDCHAR
STARTCHAR uniAB26
ENCODING 43814
SWIDTH 1112 0
DWIDTH 7 0
BBX 7 5 0 0
BITMAP
58
28
FE
84
C0
ENDCHAR
STARTCHAR uniAB28
ENCODING 43816
SWIDTH 632 0
DWIDTH 4 0
BBX 4 5 0 0
BITMAP
10
E0
60
60
70
ENDCHAR
STARTCHAR uniAB29
ENCODING 43817
SWIDTH 848 0
DWIDTH 5 0
BBX 5 5 0 0
BITMAP
10
E0
60
68
70
ENDCHAR
STARTCHAR uniAB2A
ENCODING 43818
SWIDTH 868 0
DWIDTH 5 0
BBX 5 5 0 0
BITMAP
10
E0
60
60
78
ENDCHAR
STARTCHAR uniAB2B
ENCODING 43819
SWIDTH 637 0
DWIDTH 4 0
BBX 4 5 0 0
BITMAP
10
E0
60
60
30
ENDCHAR
STARTCHAR uniAB2C
ENCODING 43820
SWIDTH 788 0
DWIDTH 5 0
BBX 4 5 0 0
BITMAP
10
E0
60
60
70
ENDCHAR
STARTCHAR uniAB2D
ENCODING 43821
SWIDTH 775 0
DWIDTH 5 0
BBX 5 5 0 0
BITMAP
10
E0
70
68
F0
ENDCHAR
STARTCHAR uniAB2E
ENCODING 43822
SWIDTH 632 0
DWIDTH 4 0
BBX 4 5 0 0
BITMAP
10
E0
60
60
40
ENDCHAR
STARTCHAR uni1383.sebLes
ENCODING 57377
SWIDTH 1305 0
DWIDTH 8 0
BBX 8 2 0 1
BITMAP
FA
FF
ENDCHAR
STARTCHAR uni1387.sebLes
ENCODING 57385
SWIDTH 866 0
DWIDTH 5 0
BBX 5 4 0 0
BITMAP
E0
B0
A8
A0
ENDCHAR
STARTCHAR uni138B.sebLes
ENCODING 57393
SWIDTH 827 0
DWIDTH 5 0
BBX 5 4 0 0
BITMAP
20
38
40
F0
ENDCHAR
STARTCHAR uni138F.sebLes
ENCODING 57401
SWIDTH 833 0
DWIDTH 5 0
BBX 5 4 0 0
BITMAP
10
E0
78
40
ENDCHAR
STARTCHAR uni124D.seb2
ENCODING 57408
SWIDTH 767 0
DWIDTH 5 0
BBX 4 5 0 0
BITMAP
40
20
D0
E0
70
ENDCHAR
STARTCHAR uni12B5.seb2
ENCODING 57409
SWIDTH 937 0
DWIDTH 6 0
BBX 5 4 0 0
BITMAP
80
60
F8
A0
ENDCHAR
STARTCHAR uni12C5.seb2
ENCODING 57410
SWIDTH 1155 0
DWIDTH 7 0
BBX 7 4 0 0
BITMAP
F0
30
3E
70
ENDCHAR
STARTCHAR uni1315.seb2
ENCODING 57411
SWIDTH 990 0
DWIDTH 6 0
BBX 6 4 0 0
BITMAP
20
DC
28
20
ENDCHAR
STARTCHAR uniE068
ENCODING 57448
SWIDTH 732 0
DWIDTH 4 0
BBX 4 5 0 0
BITMAP
F0
40
20
50
50
ENDCHAR
STARTCHAR uniE069
ENCODING 57449
SWIDTH 958 0
DWIDTH 6 0
BBX 6 5 0 0
BITMAP
F0
40
20
58
54
ENDCHAR
STARTCHAR uniE06A
ENCODING 57450
SWIDTH 972 0
DWIDTH 6 0
BBX 6 5 0 0
BITMAP
F0
40
20
50
5C
ENDCHAR
STARTCHAR uniE06B
ENCODING 57451
SWIDTH 751 0
DWIDTH 5 0
BBX 4 5 0 0
BITMAP
F0
40
20
50
50
ENDCHAR
STARTCHAR uniE06C
ENCODING 57452
SWIDTH 852 0
DWIDTH 5 0
BBX 5 5 0 0
BITMAP
F0
40
60
50
58
ENDCHAR
STARTCHAR uniE06D
ENCODING 57453
SWIDTH 738 0
DWIDTH 4 0
BBX 4 6 0 0
BITMAP
20
D0
40
20
50
50
ENDCHAR
STARTCHAR uniE06E
ENCODING 57454
SWIDTH 700 0
DWIDTH 4 0
BBX 4 5 0 0
BITMAP
F0
40
20
50
50
ENDCHAR
STARTCHAR uniE070
ENCODING 57456
SWIDTH 889 0
DWIDTH 5 0
BBX 5 5 0 -1
BITMAP
40
60
60
A0
58
ENDCHAR
STARTCHAR uniE071
ENCODING 57457
SWIDTH 703 0
DWIDTH 4 0
BBX 4 5 0 -1
BITMAP
70
B0
60
30
C0
ENDCHAR
STARTCHAR uniE072
ENCODING 57458
SWIDTH 735 0
DWIDTH 4 0
BBX 4 5 0 -1
BITMAP
60
A0
60
30
C0
ENDCHAR
STARTCHAR uni1288.handwriting
ENCODING 57856
SWIDTH 883 0
DWIDTH 5 0
BBX 5 4 0 0
BITMAP
20
A0
B8
C0
ENDCHAR
STARTCHAR uni128A.handwriting
ENCODING 57858
SWIDTH 953 0
DWIDTH 6 0
BBX 6 3 0 0
BITMAP
B0
A8
C4
ENDCHAR
STARTCHAR uni128B.handwriting
ENCODING 57859
SWIDTH 791 0
DWIDTH 5 0
BBX 5 5 0 -1
BITMAP
50
50
20
20
D8
ENDCHAR
STARTCHAR uni128C.handwriting
ENCODING 57860
SWIDTH 772 0
DWIDTH 5 0
BBX 4 5 0 -1
BITMAP
60
60
50
60
80
ENDCHAR
STARTCHAR uni128D.handwriting
ENCODING 57861
SWIDTH 879 0
DWIDTH 5 0
BBX 5 3 0 0
BITMAP
B8
A0
C0
ENDCHAR
STARTCHAR uniE217
ENCODING 57879
SWIDTH 992 0
DWIDTH 6 0
BBX 6 4 0 0
BITMAP
10
10
38
E4
ENDCHAR
STARTCHAR uniE227
ENCODING 57895
SWIDTH 922 0
DWIDTH 6 0
BBX 5 3 0 0
BITMAP
78
A0
20
ENDCHAR
STARTCHAR uniE230
ENCODING 57904
SWIDTH 553 0
DWIDTH 3 0
BBX 3 4 0 0
BITMAP
40
A0
E0
A0
ENDCHAR
STARTCHAR uniE24F
ENCODING 57935
SWIDTH 686 0
DWIDTH 4 0
BBX 4 6 0 -1
BITMAP
20
E0
E0
E0
20
D0
ENDCHAR
STARTCHAR uniE257
ENCODING 57943
SWIDTH 740 0
DWIDTH 4 0
BBX 4 6 0 -1
BITMAP
90
60
40
F0
60
80
ENDCHAR
STARTCHAR uniE25F
ENCODING 57951
SWIDTH 933 0
DWIDTH 6 0
BBX 5 5 0 0
BITMAP
20
60
60
40
B8
ENDCHAR
STARTCHAR uniE26F
ENCODING 57967
SWIDTH 793 0
DWIDTH 5 0
BBX 5 4 0 0
BITMAP
78
70
D0
60
ENDCHAR
STARTCHAR uni1298.gumuz
ENCODING 58000
SWIDTH 629 0
DWIDTH 4 0
BBX 4 5 0 0
BITMAP
B0
50
20
20
20
ENDCHAR
STARTCHAR uni1299.gumuz
ENCODING 58001
SWIDTH 762 0
DWIDTH 5 0
BBX 4 5 0 0
BITMAP
B0
50
20
30
20
ENDCHAR
STARTCHAR uni129A.gumuz
ENCODING 58002
SWIDTH 670 0
DWIDTH 4 0
BBX 4 5 0 0
BITMAP
B0
50
60
20
70
ENDCHAR
STARTCHAR uni129B.gumuz
ENCODING 58003
SWIDTH 631 0
DWIDTH 4 0
BBX 4 5 0 0
BITMAP
B0
60
80
60
60
ENDCHAR
STARTCHAR uni129C.gumuz
ENCODING 58004
SWIDTH 675 0
DWIDTH 4 0
BBX 4 5 0 0
BITMAP
90
60
60
20
70
ENDCHAR
STARTCHAR uni129D.gumuz
ENCODING 58005
SWIDTH 656 0
DWIDTH 4 0
BBX 4 5 0 0
BITMAP
B0
60
20
30
20
ENDCHAR
STARTCHAR uni129E.gumuz
ENCODING 58006
SWIDTH 660 0
DWIDTH 4 0
BBX 4 5 0 0
BITMAP
F0
B0
80
60
60
ENDCHAR
STARTCHAR uniE2A8
ENCODING 58024
SWIDTH 565 0
DWIDTH 3 0
BBX 3 4 0 0
BITMAP
E0
E0
A0
A0
ENDCHAR
STARTCHAR uniE2A9
ENCODING 58025
SWIDTH 779 0
DWIDTH 5 0
BBX 5 4 0 0
BITMAP
E0
E0
B8
A0
ENDCHAR
STARTCHAR uniE2AA
ENCODING 58026
SWIDTH 792 0
DWIDTH 5 0
BBX 5 4 0 0
BITMAP
E0
E0
A0
B8
ENDCHAR
STARTCHAR uniE2AB
ENCODING 58027
SWIDTH 565 0
DWIDTH 3 0
BBX 3 4 0 0
BITMAP
E0
E0
A0
20
ENDCHAR
STARTCHAR uniE2AC
ENCODING 58028
SWIDTH 779 0
DWIDTH 5 0
BBX 4 4 0 0
BITMAP
E0
60
A0
F0
ENDCHAR
STARTCHAR uniE2AD
ENCODING 58029
SWIDTH 600 0
DWIDTH 4 0
BBX 3 4 0 0
BITMAP
E0
60
E0
A0
ENDCHAR
STARTCHAR uniE2AE
ENCODING 58030
SWIDTH 553 0
DWIDTH 3 0
BBX 3 4 0 0
BITMAP
E0
E0
A0
80
ENDCHAR
STARTCHAR uniE2B7
ENCODING 58039
SWIDTH 700 0
DWIDTH 4 0
BBX 4 5 0 -1
BITMAP
40
A0
E0
20
D0
ENDCHAR
STARTCHAR uniE2BF
ENCODING 58047
SWIDTH 747 0
DWIDTH 4 0
BBX 4 4 0 0
BITMAP
F0
30
50
E0
ENDCHAR
STARTCHAR uniE2D7
ENCODING 58071
SWIDTH 650 0
DWIDTH 4 0
BBX 4 4 0 0
BITMAP
30
D0
60
40
ENDCHAR
STARTCHAR uniE2D8
ENCODING 58072
SWIDTH 564 0
DWIDTH 3 0
BBX 3 5 0 0
BITMAP
A0
60
60
A0
A0
ENDCHAR
STARTCHAR uniE2E7
ENCODING 58087
SWIDTH 919 0
DWIDTH 6 0
BBX 5 4 0 0
BITMAP
08
F0
70
C0
ENDCHAR
STARTCHAR uniE2F8
ENCODING 58104
SWIDTH 706 0
DWIDTH 4 0
BBX 4 5 0 0
BITMAP
20
60
60
40
B0
ENDCHAR
STARTCHAR uni1313.seb0
ENCODING 58131
SWIDTH 573 0
DWIDTH 3 0
BBX 3 4 0 0
BITMAP
E0
20
20
E0
ENDCHAR
STARTCHAR uni1318.alt1
ENCODING 58136
SWIDTH 632 0
DWIDTH 4 0
BBX 4 5 0 0
BITMAP
10
E0
E0
20
20
ENDCHAR
STARTCHAR uni1319.alt1
ENCODING 58137
SWIDTH 765 0
DWIDTH 5 0
BBX 4 4 0 0
BITMAP
F0
60
30
20
ENDCHAR
STARTCHAR uni131A.alt1
ENCODING 58138
SWIDTH 779 0
DWIDTH 5 0
BBX 4 4 0 0
BITMAP
F0
60
20
30
ENDCHAR
STARTCHAR uni131B.alt1
ENCODING 58139
SWIDTH 696 0
DWIDTH 4 0
BBX 4 4 0 0
BITMAP
F0
70
20
C0
ENDCHAR
STARTCHAR uni131C.alt1
ENCODING 58140
SWIDTH 654 0
DWIDTH 4 0
BBX 4 5 0 0
BITMAP
10
E0
E0
20
70
ENDCHAR
STARTCHAR uni131D.alt1
ENCODING 58141
SWIDTH 649 0
DWIDTH 4 0
BBX 4 5 0 0
BITMAP
10
E0
F0
20
20
ENDCHAR
STARTCHAR uni131E.alt1
ENCODING 58142
SWIDTH 649 0
DWIDTH 4 0
BBX 4 4 0 0
BITMAP
F0
A0
20
20
ENDCHAR
STARTCHAR uni1287.alt3
ENCODING 58143
SWIDTH 649 0
DWIDTH 4 0
BBX 4 5 0 -1
BITMAP
F0
A0
20
20
C0
ENDCHAR
STARTCHAR uniE33F
ENCODING 58175
SWIDTH 731 0
DWIDTH 4 0
BBX 4 4 0 0
BITMAP
30
D0
30
40
ENDCHAR
STARTCHAR uni133F.oldstyle
ENCODING 58179
SWIDTH 708 0
DWIDTH 4 0
BBX 4 5 0 -1
BITMAP
60
60
20
30
C0
ENDCHAR
STARTCHAR uniE34F
ENCODING 58191
SWIDTH 928 0
DWIDTH 6 0
BBX 5 4 0 0
BITMAP
08
78
30
F8
ENDCHAR
STARTCHAR uniE370
ENCODING 58224
SWIDTH 370 0
DWIDTH 2 0
BBX 3 2 -1 1
BITMAP
20
E0
ENDCHAR
STARTCHAR uniE371
ENCODING 58225
SWIDTH 340 0
DWIDTH 2 0
BBX 3 1 -1 1
BITMAP
E0
ENDCHAR
STARTCHAR uniE372
ENCODING 58226
SWIDTH 427 0
DWIDTH 3 0
BBX 3 2 -1 1
BITMAP
40
A0
ENDCHAR
STARTCHAR uniE373
ENCODING 58227
SWIDTH 427 0
DWIDTH 3 0
BBX 3 3 -1 0
BITMAP
40
C0
20
ENDCHAR
STARTCHAR uniE374
ENCODING 58228
SWIDTH 153 0
DWIDTH 1 0
BBX 3 2 -2 -1
BITMAP
60
80
ENDCHAR
STARTCHAR uniE375
ENCODING 58229
SWIDTH 338 0
DWIDTH 2 0
BBX 3 2 -1 1
BITMAP
40
A0
ENDCHAR
STARTCHAR uniE376
ENCODING 58230
SWIDTH 338 0
DWIDTH 2 0
BBX 3 2 -1 0
BITMAP
C0
20
ENDCHAR
STARTCHAR uniE37A
ENCODING 58234
SWIDTH 37 0
DWIDTH 0 0
BBX 1 1 -4 3
BITMAP
80
ENDCHAR
STARTCHAR uniE37B
ENCODING 58235
SWIDTH 37 0
DWIDTH 0 0
BBX 1 1 -3 3
BITMAP
80
ENDCHAR
STARTCHAR uniE37C
ENCODING 58236
SWIDTH 37 0
DWIDTH 0 0
BBX 1 1 -2 4
BITMAP
80
ENDCHAR
STARTCHAR uniE37D
ENCODING 58237
SWIDTH 224 0
DWIDTH 1 0
BBX 2 2 0 0
BITMAP
40
80
ENDCHAR
STARTCHAR uniE37E
ENCODING 58238
SWIDTH 224 0
DWIDTH 1 0
BBX 2 1 1 -1
BITMAP
C0
ENDCHAR
STARTCHAR uniE37F
ENCODING 58239
SWIDTH 224 0
DWIDTH 1 0
BBX 2 1 -1 -1
BITMAP
C0
ENDCHAR
STARTCHAR uni12F8.oromo
ENCODING 58240
SWIDTH 679 0
DWIDTH 4 0
BBX 4 4 0 0
BITMAP
60
60
40
B0
ENDCHAR
STARTCHAR uni12F9.oromo
ENCODING 58241
SWIDTH 853 0
DWIDTH 5 0
BBX 5 4 0 0
BITMAP
60
60
B0
38
ENDCHAR
STARTCHAR uni12FA.oromo
ENCODING 58242
SWIDTH 779 0
DWIDTH 5 0
BBX 4 4 0 0
BITMAP
60
60
B0
30
ENDCHAR
STARTCHAR uni12FB.oromo
ENCODING 58243
SWIDTH 600 0
DWIDTH 4 0
BBX 3 4 0 0
BITMAP
60
60
A0
20
ENDCHAR
STARTCHAR uni12FC.oromo
ENCODING 58244
SWIDTH 866 0
DWIDTH 5 0
BBX 5 4 0 0
BITMAP
60
60
40
B8
ENDCHAR
STARTCHAR uni12FD.oromo
ENCODING 58245
SWIDTH 806 0
DWIDTH 5 0
BBX 5 4 0 0
BITMAP
60
78
40
B0
ENDCHAR
STARTCHAR uni12FE.oromo
ENCODING 58246
SWIDTH 740 0
DWIDTH 4 0
BBX 4 4 0 0
BITMAP
60
60
50
80
ENDCHAR
STARTCHAR uni1297.oldstyle
ENCODING 58368
SWIDTH 706 0
DWIDTH 4 0
BBX 4 5 0 -1
BITMAP
40
60
20
30
C0
ENDCHAR
STARTCHAR uni1313.oldstyle
ENCODING 58369
SWIDTH 706 0
DWIDTH 4 0
BBX 4 5 0 -1
BITMAP
20
E0
20
30
C0
ENDCHAR
STARTCHAR uni12C3.oldstyle
ENCODING 58371
SWIDTH 873 0
DWIDTH 5 0
BBX 5 5 0 -1
BITMAP
F0
30
50
50
28
ENDCHAR
STARTCHAR uni131F.type
ENCODING 58372
SWIDTH 642 0
DWIDTH 4 0
BBX 4 5 0 0
BITMAP
B0
70
20
50
20
ENDCHAR
STARTCHAR uni138A.trad
ENCODING 58373
SWIDTH 766 0
DWIDTH 5 0
BBX 4 5 0 -1
BITMAP
20
60
30
30
C0
ENDCHAR
STARTCHAR uniE406
ENCODING 58374
SWIDTH 812 0
DWIDTH 5 0
BBX 5 5 0 -1
BITMAP
20
40
A0
78
90
ENDCHAR
STARTCHAR uni1362.alt2
ENCODING 58376
SWIDTH 571 0
DWIDTH 3 0
BBX 3 4 0 0
BITMAP
40
60
A0
40
ENDCHAR
STARTCHAR uni1381.seb3
ENCODING 58384
SWIDTH 1097 0
DWIDTH 7 0
BBX 6 4 0 0
BITMAP
78
D8
18
14
ENDCHAR
STARTCHAR uni124A.seb3
ENCODING 58385
SWIDTH 916 0
DWIDTH 6 0
BBX 5 4 0 0
BITMAP
20
F0
50
78
ENDCHAR
STARTCHAR uni1385.seb3
ENCODING 58386
SWIDTH 892 0
DWIDTH 5 0
BBX 5 4 0 0
BITMAP
E0
A0
B0
B8
ENDCHAR
STARTCHAR uni12B2.seb3
ENCODING 58387
SWIDTH 937 0
DWIDTH 6 0
BBX 5 4 0 0
BITMAP
80
E0
B0
B8
ENDCHAR
STARTCHAR uni1312.seb3
ENCODING 58388
SWIDTH 854 0
DWIDTH 5 0
BBX 5 4 0 0
BITMAP
40
A0
50
78
ENDCHAR
STARTCHAR uni138D.seb3
ENCODING 58389
SWIDTH 772 0
DWIDTH 5 0
BBX 4 4 0 0
BITMAP
10
E0
50
70
ENDCHAR
STARTCHAR uni12C2.seb3
ENCODING 58390
SWIDTH 1142 0
DWIDTH 7 0
BBX 7 5 0 0
BITMAP
10
E0
30
58
7E
ENDCHAR
STARTCHAR uni134F.cohen4
ENCODING 58391
SWIDTH 768 0
DWIDTH 5 0
BBX 4 5 0 -1
BITMAP
30
40
70
20
D0
ENDCHAR
STARTCHAR uni129F.cohen8
ENCODING 58392
SWIDTH 666 0
DWIDTH 4 0
BBX 4 5 0 -1
BITMAP
F0
60
20
40
B0
ENDCHAR
STARTCHAR uni121F.cohen2
ENCODING 58393
SWIDTH 833 0
DWIDTH 5 0
BBX 5 5 0 -1
BITMAP
78
D8
40
40
A0
ENDCHAR
STARTCHAR uni121F.cohen1
ENCODING 58394
SWIDTH 1005 0
DWIDTH 6 0
BBX 5 5 0 0
BITMAP
10
60
F8
D0
10
ENDCHAR
STARTCHAR uni122F.cohen3
ENCODING 58395
SWIDTH 686 0
DWIDTH 4 0
BBX 4 5 0 -1
BITMAP
40
40
F0
40
B0
ENDCHAR
STARTCHAR uni134F.oldstyle
ENCODING 58512
SWIDTH 726 0
DWIDTH 4 0
BBX 4 5 0 0
BITMAP
90
60
C0
70
40
ENDCHAR
STARTCHAR uniE491
ENCODING 58513
SWIDTH 1042 0
DWIDTH 6 0
BBX 6 5 0 0
BITMAP
70
20
FC
40
60
ENDCHAR
STARTCHAR uni129F.gumuz
ENCODING 58514
SWIDTH 657 0
DWIDTH 4 0
BBX 4 6 0 -1
BITMAP
90
60
80
60
40
A0
ENDCHAR
STARTCHAR uniE493
ENCODING 58515
SWIDTH 663 0
DWIDTH 4 0
BBX 4 5 0 0
BITMAP
90
60
A0
40
40
ENDCHAR
STARTCHAR uniE494
ENCODING 58516
SWIDTH 632 0
DWIDTH 4 0
BBX 4 5 0 -1
BITMAP
E0
D0
A0
A0
E0
ENDCHAR
STARTCHAR uniE496
ENCODING 58518
SWIDTH 846 0
DWIDTH 5 0
BBX 5 4 0 0
BITMAP
F0
E8
D8
F0
ENDCHAR
STARTCHAR uni1381.sebLes
ENCODING 58520
SWIDTH 1240 0
DWIDTH 7 0
BBX 7 2 0 1
BITMAP
FC
FA
ENDCHAR
STARTCHAR uni1383.seb4
ENCODING 58521
SWIDTH 1235 0
DWIDTH 7 0
BBX 7 4 0 0
BITMAP
7C
DA
40
80
ENDCHAR
STARTCHAR uniE49A
ENCODING 58522
SWIDTH 1228 0
DWIDTH 7 0
BBX 7 4 0 0
BITMAP
7C
DE
40
80
ENDCHAR
STARTCHAR uniE49C
ENCODING 58524
SWIDTH 0 0
DWIDTH 0 0
BBX 3 1 -3 4
BITMAP
E0
ENDCHAR
STARTCHAR uniE49D
ENCODING 58525
SWIDTH 0 0
DWIDTH 0 0
BBX 1 1 -2 4
BITMAP
00
ENDCHAR
STARTCHAR uniE49E
ENCODING 58526
SWIDTH 0 0
DWIDTH 0 0
BBX 3 1 -5 3
BITMAP
E0
ENDCHAR
STARTCHAR uniE500
ENCODING 58624
SWIDTH 0 0
DWIDTH 0 0
BBX 1 1 -2 4
BITMAP
80
ENDCHAR
STARTCHAR uniE501
ENCODING 58625
SWIDTH 0 0
DWIDTH 0 0
BBX 2 1 -3 4
BITMAP
C0
ENDCHAR
STARTCHAR uniE502
ENCODING 58626
SWIDTH 0 0
DWIDTH 0 0
BBX 1 1 -4 3
BITMAP
80
ENDCHAR
STARTCHAR uniE508
ENCODING 58632
SWIDTH 0 0
DWIDTH 0 0
BBX 1 1 -2 4
BITMAP
80
ENDCHAR
STARTCHAR uniE509
ENCODING 58633
SWIDTH 0 0
DWIDTH 0 0
BBX 1 1 -2 4
BITMAP
00
ENDCHAR
STARTCHAR uniE50A
ENCODING 58634
SWIDTH 0 0
DWIDTH 0 0
BBX 1 1 -4 3
BITMAP
80
ENDCHAR
STARTCHAR uniE50F
ENCODING 58639
SWIDTH 0 0
DWIDTH 0 0
BBX 3 1 -4 4
BITMAP
E0
ENDCHAR
STARTCHAR uniE510
ENCODING 58640
SWIDTH 0 0
DWIDTH 0 0
BBX 3 2 -5 3
BITMAP
20
C0
ENDCHAR
STARTCHAR uniE511
ENCODING 58641
SWIDTH 0 0
DWIDTH 0 0
BBX 4 2 -5 3
BITMAP
10
E0
ENDCHAR
STARTCHAR uniE512
ENCODING 58642
SWIDTH 0 0
DWIDTH 0 0
BBX 4 2 -4 3
BITMAP
20
D0
ENDCHAR
STARTCHAR uniE513
ENCODING 58643
SWIDTH 0 0
DWIDTH 0 0
BBX 4 2 -4 3
BITMAP
10
E0
ENDCHAR
STARTCHAR uniE514
ENCODING 58644
SWIDTH 0 0
DWIDTH 0 0
BBX 3 2 -3 3
BITMAP
20
C0
ENDCHAR
STARTCHAR uniE515
ENCODING 58645
SWIDTH 0 0
DWIDTH 0 0
BBX 3 1 -5 4
BITMAP
E0
ENDCHAR
STARTCHAR uniE516
ENCODING 58646
SWIDTH 0 0
DWIDTH 0 0
BBX 4 1 -5 4
BITMAP
F0
ENDCHAR
STARTCHAR uniE517
ENCODING 58647
SWIDTH 0 0
DWIDTH 0 0
BBX 4 1 -4 4
BITMAP
F0
ENDCHAR
STARTCHAR uniE518
ENCODING 58648
SWIDTH 0 0
DWIDTH 0 0
BBX 4 1 -4 4
BITMAP
F0
ENDCHAR
STARTCHAR uniE519
ENCODING 58649
SWIDTH 0 0
DWIDTH 0 0
BBX 3 1 -3 4
BITMAP
E0
ENDCHAR
STARTCHAR uniE51A
ENCODING 58650
SWIDTH 0 0
DWIDTH 0 0
BBX 3 1 -5 4
BITMAP
E0
ENDCHAR
STARTCHAR uniE51B
ENCODING 58651
SWIDTH 0 0
DWIDTH 0 0
BBX 4 1 -5 4
BITMAP
F0
ENDCHAR
STARTCHAR uniE51C
ENCODING 58652
SWIDTH 0 0
DWIDTH 0 0
BBX 4 1 -4 4
BITMAP
F0
ENDCHAR
STARTCHAR uniE51D
ENCODING 58653
SWIDTH 0 0
DWIDTH 0 0
BBX 4 1 -4 4
BITMAP
F0
ENDCHAR
STARTCHAR uniE51E
ENCODING 58654
SWIDTH 0 0
DWIDTH 0 0
BBX 3 1 -3 4
BITMAP
E0
ENDCHAR
STARTCHAR uniE51F
ENCODING 58655
SWIDTH 0 0
DWIDTH 0 0
BBX 3 2 -4 4
BITMAP
20
C0
ENDCHAR
STARTCHAR uniE520
ENCODING 58656
SWIDTH 152 0
DWIDTH 1 0
BBX 2 1 -1 3
BITMAP
C0
ENDCHAR
STARTCHAR uniE521
ENCODING 58657
SWIDTH 152 0
DWIDTH 1 0
BBX 2 2 -1 2
BITMAP
C0
80
ENDCHAR
STARTCHAR uniE522
ENCODING 58658
SWIDTH 152 0
DWIDTH 1 0
BBX 2 2 -1 1
BITMAP
C0
80
ENDCHAR
STARTCHAR uniE528
ENCODING 58664
SWIDTH 6 0
DWIDTH 0 0
BBX 4 1 -4 -1
BITMAP
F0
ENDCHAR
STARTCHAR uniE529
ENCODING 58665
SWIDTH 5 0
DWIDTH 0 0
BBX 4 1 -3 -1
BITMAP
F0
ENDCHAR
STARTCHAR fi
ENCODING 64257
SWIDTH 628 0
DWIDTH 4 0
BBX 4 4 0 0
BITMAP
C0
E0
A0
F0
ENDCHAR
STARTCHAR fl
ENCODING 64258
SWIDTH 623 0
DWIDTH 4 0
BBX 4 4 0 0
BITMAP
E0
E0
A0
F0
ENDCHAR
STARTCHAR uniFE00
ENCODING 65024
SWIDTH 0 0
DWIDTH 0 0
BBX 1 1 0 0
BITMAP
00
ENDCHAR
STARTCHAR uniFE01
ENCODING 65025
SWIDTH 0 0
DWIDTH 0 0
BBX 1 1 0 0
BITMAP
00
ENDCHAR
STARTCHAR uniFE02
ENCODING 65026
SWIDTH 0 0
DWIDTH 0 0
BBX 1 1 0 0
BITMAP
00
ENDCHAR
STARTCHAR uniFE03
ENCODING 65027
SWIDTH 0 0
DWIDTH 0 0
BBX 1 1 0 0
BITMAP
00
ENDCHAR
STARTCHAR uniFE04
ENCODING 65028
SWIDTH 0 0
DWIDTH 0 0
BBX 1 1 0 0
BITMAP
00
ENDCHAR
STARTCHAR uniFE05
ENCODING 65029
SWIDTH 0 0
DWIDTH 0 0
BBX 1 1 0 0
BITMAP
00
ENDCHAR
STARTCHAR uniFE06
ENCODING 65030
SWIDTH 0 0
DWIDTH 0 0
BBX 1 1 0 0
BITMAP
00
ENDCHAR
STARTCHAR uniFE07
ENCODING 65031
SWIDTH 0 0
DWIDTH 0 0
BBX 1 1 0 0
BITMAP
00
ENDCHAR
STARTCHAR uniFE08
ENCODING 65032
SWIDTH 0 0
DWIDTH 0 0
BBX 1 1 0 0
BITMAP
00
ENDCHAR
STARTCHAR uniFE09
ENCODING 65033
SWIDTH 0 0
DWIDTH 0 0
BBX 1 1 0 0
BITMAP
00
ENDCHAR
STARTCHAR uniFE0A
ENCODING 65034
SWIDTH 0 0
DWIDTH 0 0
BBX 1 1 0 0
BITMAP
00
ENDCHAR
STARTCHAR uniFE0B
ENCODING 65035
SWIDTH 0 0
DWIDTH 0 0
BBX 1 1 0 0
BITMAP
00
ENDCHAR
STARTCHAR uniFE0C
ENCODING 65036
SWIDTH 0 0
DWIDTH 0 0
BBX 1 1 0 0
BITMAP
00
ENDCHAR
STARTCHAR uniFE0D
ENCODING 65037
SWIDTH 0 0
DWIDTH 0 0
BBX 1 1 0 0
BITMAP
00
ENDCHAR
STARTCHAR uniFE0E
ENCODING 65038
SWIDTH 0 0
DWIDTH 0 0
BBX 1 1 0 0
BITMAP
00
ENDCHAR
STARTCHAR uniFE0F
ENCODING 65039
SWIDTH 0 0
DWIDTH 0 0
BBX 1 1 0 0
BITMAP
00
ENDCHAR
STARTCHAR uniFEFF
ENCODING 65279
SWIDTH 0 0
DWIDTH 0 0
BBX 1 1 0 0
BITMAP
00
ENDCHAR
STARTCHAR uniFFFC
ENCODING 65532
SWIDTH 0 0
DWIDTH 0 0
BBX 1 1 0 0
BITMAP
00
ENDCHAR
STARTCHAR uniFFFD
ENCODING 65533
SWIDTH 962 0
DWIDTH 6 0
BBX 6 6 0 -1
BITMAP
20
70
E8
7C
30
20
ENDCHAR
STARTCHAR .notdef
ENCODING -1
SWIDTH 1000 0
DWIDTH 6 0
BBX 6 5 0 -1
BITMAP
FC
84
84
84
FC
ENDCHAR
STARTCHAR .null
ENCODING -1
SWIDTH 0 0
DWIDTH 0 0
BBX 1 1 0 0
BITMAP
00
ENDCHAR
STARTCHAR glyph2
ENCODING -1
SWIDTH 0 0
DWIDTH 0 0
BBX 1 1 0 0
BITMAP
00
ENDCHAR
STARTCHAR exclam.punct
ENCODING -1
SWIDTH 337 0
DWIDTH 2 0
BBX 1 4 0 0
BITMAP
80
80
80
80
ENDCHAR
STARTCHAR dollar.punct
ENCODING -1
SWIDTH 562 0
DWIDTH 3 0
BBX 3 5 0 -1
BITMAP
E0
C0
20
A0
40
ENDCHAR
STARTCHAR percent.punct
ENCODING -1
SWIDTH 859 0
DWIDTH 5 0
BBX 5 4 0 0
BITMAP
D0
E0
58
58
ENDCHAR
STARTCHAR asterisk.punct
ENCODING -1
SWIDTH 500 0
DWIDTH 3 0
BBX 3 2 0 2
BITMAP
40
E0
ENDCHAR
STARTCHAR plus.punct
ENCODING -1
SWIDTH 1000 0
DWIDTH 6 0
BBX 4 4 1 0
BITMAP
40
40
F0
40
ENDCHAR
STARTCHAR slash.punct
ENCODING -1
SWIDTH 490 0
DWIDTH 3 0
BBX 3 5 0 -1
BITMAP
20
40
40
80
80
ENDCHAR
STARTCHAR zero.punct
ENCODING -1
SWIDTH 562 0
DWIDTH 3 0
BBX 3 4 0 0
BITMAP
E0
A0
A0
E0
ENDCHAR
STARTCHAR one.punct
ENCODING -1
SWIDTH 562 0
DWIDTH 3 0
BBX 3 4 0 0
BITMAP
C0
40
40
60
ENDCHAR
STARTCHAR two.punct
ENCODING -1
SWIDTH 562 0
DWIDTH 3 0
BBX 3 4 0 0
BITMAP
E0
20
40
E0
ENDCHAR
STARTCHAR three.punct
ENCODING -1
SWIDTH 562 0
DWIDTH 3 0
BBX 3 4 0 0
BITMAP
E0
20
60
E0
ENDCHAR
STARTCHAR four.punct
ENCODING -1
SWIDTH 562 0
DWIDTH 3 0
BBX 3 4 0 0
BITMAP
20
E0
E0
20
ENDCHAR
STARTCHAR five.punct
ENCODING -1
SWIDTH 562 0
DWIDTH 3 0
BBX 3 4 0 0
BITMAP
E0
40
20
E0
ENDCHAR
STARTCHAR six.punct
ENCODING -1
SWIDTH 562 0
DWIDTH 3 0
BBX 3 4 0 0
BITMAP
60
C0
A0
E0
ENDCHAR
STARTCHAR seven.punct
ENCODING -1
SWIDTH 562 0
DWIDTH 3 0
BBX 3 4 0 0
BITMAP
E0
40
40
80
ENDCHAR
STARTCHAR eight.punct
ENCODING -1
SWIDTH 562 0
DWIDTH 3 0
BBX 3 4 0 0
BITMAP
E0
A0
E0
E0
ENDCHAR
STARTCHAR nine.punct
ENCODING -1
SWIDTH 562 0
DWIDTH 3 0
BBX 3 4 0 0
BITMAP
E0
A0
60
40
ENDCHAR
STARTCHAR equal.punct
ENCODING -1
SWIDTH 1000 0
DWIDTH 6 0
BBX 4 2 1 1
BITMAP
F0
F0
ENDCHAR
STARTCHAR question.punct
ENCODING -1
SWIDTH 485 0
DWIDTH 3 0
BBX 3 4 0 0
BITMAP
C0
60
80
40
ENDCHAR
STARTCHAR Euro.punct
ENCODING -1
SWIDTH 562 0
DWIDTH 3 0
BBX 3 4 0 0
BITMAP
E0
80
C0
E0
ENDCHAR
STARTCHAR guilsinglleft.punct
ENCODING -1
SWIDTH 244 0
DWIDTH 1 0
BBX 1 3 0 0
BITMAP
80
80
80
ENDCHAR
STARTCHAR quoteleft.punct
ENCODING -1
SWIDTH 247 0
DWIDTH 1 0
BBX 1 1 0 3
BITMAP
80
ENDCHAR
STARTCHAR quoteright.punct
ENCODING -1
SWIDTH 247 0
DWIDTH 1 0
BBX 1 1 0 3
BITMAP
80
ENDCHAR
STARTCHAR quotedblleft.punct
ENCODING -1
SWIDTH 453 0
DWIDTH 3 0
BBX 2 1 0 3
BITMAP
C0
ENDCHAR
STARTCHAR quotedblright.punct
ENCODING -1
SWIDTH 453 0
DWIDTH 3 0
BBX 2 1 0 3
BITMAP
C0
ENDCHAR
STARTCHAR guilsinglright.punct
ENCODING -1
SWIDTH 244 0
DWIDTH 1 0
BBX 1 3 0 0
BITMAP
80
80
80
ENDCHAR
STARTCHAR exclamdown.punct
ENCODING -1
SWIDTH 337 0
DWIDTH 2 0
BBX 1 4 0 -1
BITMAP
80
80
80
80
ENDCHAR
STARTCHAR copyright.punct
ENCODING -1
SWIDTH 836 0
DWIDTH 5 0
BBX 5 4 0 0
BITMAP
F0
C8
E8
F0
ENDCHAR
STARTCHAR guillemotleft.punct
ENCODING -1
SWIDTH 441 0
DWIDTH 3 0
BBX 2 3 0 0
BITMAP
C0
C0
C0
ENDCHAR
STARTCHAR twosuperior.punct
ENCODING -1
SWIDTH 366 0
DWIDTH 2 0
BBX 2 3 0 2
BITMAP
C0
40
C0
ENDCHAR
STARTCHAR threesuperior.punct
ENCODING -1
SWIDTH 366 0
DWIDTH 2 0
BBX 2 3 0 2
BITMAP
C0
40
C0
ENDCHAR
STARTCHAR onesuperior.punct
ENCODING -1
SWIDTH 366 0
DWIDTH 2 0
BBX 2 3 0 2
BITMAP
80
80
C0
ENDCHAR
STARTCHAR guillemotright.punct
ENCODING -1
SWIDTH 441 0
DWIDTH 3 0
BBX 2 3 0 0
BITMAP
80
C0
C0
ENDCHAR
STARTCHAR multiply.punct
ENCODING -1
SWIDTH 1000 0
DWIDTH 6 0
BBX 4 3 1 0
BITMAP
F0
60
90
ENDCHAR
STARTCHAR zerosuperior.punct
ENCODING -1
SWIDTH 366 0
DWIDTH 2 0
BBX 2 3 0 2
BITMAP
C0
C0
C0
ENDCHAR
STARTCHAR foursuperior.punct
ENCODING -1
SWIDTH 366 0
DWIDTH 2 0
BBX 2 3 0 2
BITMAP
40
C0
40
ENDCHAR
STARTCHAR fivesuperior.punct
ENCODING -1
SWIDTH 366 0
DWIDTH 2 0
BBX 2 3 0 2
BITMAP
C0
C0
C0
ENDCHAR
STARTCHAR sixsuperior.punct
ENCODING -1
SWIDTH 366 0
DWIDTH 2 0
BBX 2 3 0 2
BITMAP
C0
C0
C0
ENDCHAR
STARTCHAR sevensuperior.punct
ENCODING -1
SWIDTH 366 0
DWIDTH 2 0
BBX 2 3 0 2
BITMAP
C0
80
80
ENDCHAR
STARTCHAR eightsuperior.punct
ENCODING -1
SWIDTH 366 0
DWIDTH 2 0
BBX 2 3 0 2
BITMAP
C0
40
C0
ENDCHAR
STARTCHAR ninesuperior.punct
ENCODING -1
SWIDTH 366 0
DWIDTH 2 0
BBX 2 3 0 2
BITMAP
C0
C0
80
ENDCHAR
STARTCHAR nonmarkingreturn
ENCODING -1
SWIDTH 450 0
DWIDTH 3 0
BBX 1 1 0 0
BITMAP
00
ENDCHAR
STARTCHAR uni1359.ala2
ENCODING -1
SWIDTH 1005 0
DWIDTH 6 0
BBX 5 5 0 0
BITMAP
10
60
F8
D0
10
ENDCHAR
STARTCHAR uni1381.seb5
ENCODING -1
SWIDTH 1097 0
DWIDTH 7 0
BBX 6 4 0 0
BITMAP
78
D8
18
14
ENDCHAR
STARTCHAR uni1381.sebLes1
ENCODING -1
SWIDTH 1240 0
DWIDTH 7 0
BBX 7 2 0 1
BITMAP
FC
FA
ENDCHAR
STARTCHAR uni1383.sebLes4
ENCODING -1
SWIDTH 1305 0
DWIDTH 8 0
BBX 8 2 0 1
BITMAP
FA
FF
ENDCHAR
STARTCHAR uni1358.ala1
ENCODING -1
SWIDTH 758 0
DWIDTH 5 0
BBX 4 4 0 0
BITMAP
50
20
50
E0
ENDCHAR
STARTCHAR uni1387.sebLes2
ENCODING -1
SWIDTH 866 0
DWIDTH 5 0
BBX 5 4 0 0
BITMAP
E0
B0
A8
A0
ENDCHAR
STARTCHAR uni1297.cohen0
ENCODING -1
SWIDTH 706 0
DWIDTH 4 0
BBX 4 5 0 -1
BITMAP
40
60
20
30
C0
ENDCHAR
STARTCHAR uni129F.gumuz1
ENCODING -1
SWIDTH 657 0
DWIDTH 4 0
BBX 4 6 0 -1
BITMAP
90
60
80
60
40
A0
ENDCHAR
STARTCHAR uni12C3.cohen7
ENCODING -1
SWIDTH 873 0
DWIDTH 5 0
BBX 5 5 0 -1
BITMAP
F0
30
50
50
28
ENDCHAR
STARTCHAR uni12E0.cohen6
ENCODING -1
SWIDTH 919 0
DWIDTH 6 0
BBX 5 4 0 0
BITMAP
08
D0
70
50
ENDCHAR
STARTCHAR uni12E1.cohen6
ENCODING -1
SWIDTH 913 0
DWIDTH 5 0
BBX 5 4 0 0
BITMAP
08
D0
78
50
ENDCHAR
STARTCHAR uni12E3.cohen6
ENCODING -1
SWIDTH 919 0
DWIDTH 6 0
BBX 5 4 0 0
BITMAP
08
D0
70
30
ENDCHAR
STARTCHAR uni12E4.cohen6
ENCODING -1
SWIDTH 919 0
DWIDTH 6 0
BBX 5 4 0 0
BITMAP
08
D0
70
58
ENDCHAR
STARTCHAR uni12E5.cohen6
ENCODING -1
SWIDTH 965 0
DWIDTH 6 0
BBX 6 4 0 0
BITMAP
0C
F0
30
D0
ENDCHAR
STARTCHAR uni12E6.cohen6
ENCODING -1
SWIDTH 919 0
DWIDTH 6 0
BBX 5 4 0 0
BITMAP
08
F0
70
40
ENDCHAR
STARTCHAR uni12E0.chaine
ENCODING -1
SWIDTH 919 0
DWIDTH 6 0
BBX 5 5 0 -1
BITMAP
08
D0
70
50
88
ENDCHAR
STARTCHAR uni12E1.chaine
ENCODING -1
SWIDTH 913 0
DWIDTH 5 0
BBX 5 5 0 -1
BITMAP
08
D0
78
50
88
ENDCHAR
STARTCHAR uni12E3.chaine
ENCODING -1
SWIDTH 919 0
DWIDTH 6 0
BBX 5 5 0 -1
BITMAP
08
D0
70
B0
08
ENDCHAR
STARTCHAR uni12E4.chaine
ENCODING -1
SWIDTH 919 0
DWIDTH 6 0
BBX 5 5 0 -1
BITMAP
08
D0
70
58
80
ENDCHAR
STARTCHAR uni12E5.chaine
ENCODING -1
SWIDTH 919 0
DWIDTH 6 0
BBX 5 5 0 -1
BITMAP
10
D0
70
50
88
ENDCHAR
STARTCHAR uni12E5.oldstyle
ENCODING -1
SWIDTH 965 0
DWIDTH 6 0
BBX 6 4 0 0
BITMAP
0C
F0
30
D0
ENDCHAR
STARTCHAR uni12E6.chaine
ENCODING -1
SWIDTH 919 0
DWIDTH 6 0
BBX 5 5 0 -1
BITMAP
08
F0
70
48
80
ENDCHAR
STARTCHAR uni1313.alonestokes
ENCODING -1
SWIDTH 706 0
DWIDTH 4 0
BBX 4 5 0 -1
BITMAP
20
E0
20
30
C0
ENDCHAR
STARTCHAR uni2D93.blin
ENCODING -1
SWIDTH 931 0
DWIDTH 6 0
BBX 5 4 0 0
BITMAP
F0
68
38
20
ENDCHAR
STARTCHAR uni2D94.blin
ENCODING -1
SWIDTH 985 0
DWIDTH 6 0
BBX 6 4 0 0
BITMAP
F0
70
2C
20
ENDCHAR
STARTCHAR uni2D95.blin
ENCODING -1
SWIDTH 755 0
DWIDTH 5 0
BBX 4 5 0 -1
BITMAP
F0
60
30
40
80
ENDCHAR
STARTCHAR uni2D96.blin
ENCODING -1
SWIDTH 872 0
DWIDTH 5 0
BBX 5 4 0 0
BITMAP
F0
70
28
20
ENDCHAR
STARTCHAR uni1335.praetorius
ENCODING -1
SWIDTH 574 0
DWIDTH 3 0
BBX 3 5 0 0
BITMAP
80
40
A0
60
A0
ENDCHAR
STARTCHAR uni133F.alt4
ENCODING -1
SWIDTH 708 0
DWIDTH 4 0
BBX 4 5 0 -1
BITMAP
60
60
20
30
C0
ENDCHAR
STARTCHAR uni134F.cohen5
ENCODING -1
SWIDTH 726 0
DWIDTH 4 0
BBX 4 5 0 0
BITMAP
90
60
C0
70
40
ENDCHAR
STARTCHAR uni138B.sebLes3
ENCODING -1
SWIDTH 827 0
DWIDTH 5 0
BBX 5 4 0 0
BITMAP
20
38
40
F0
ENDCHAR
STARTCHAR uni138F.sebLes5
ENCODING -1
SWIDTH 833 0
DWIDTH 5 0
BBX 5 4 0 0
BITMAP
10
E0
78
40
ENDCHAR
ENDFONT
